  0
SECTION
  2
HEADER
  9
$ACADVER
  1
AC1009
  9
$FILLMODE
 70
 0
  9
$SPLFRAME
 70
 1
  9
$EXTMIN
 10
0
 20
0
 30
0.0
  9
$EXTMAX
 10
1058.33
 20
1058.33
 30
0.0
  0
ENDSEC
  0
SECTION
  2
TABLES
  0
TABLE
  2
LAYER
 70
1
  0
LAYER
  2
0
 70
     0
 62
     7
  6
CONTINUOUS
  0
ENDTAB
  0
ENDSEC
  0
SECTION
  2
ENTITIES
  0
LINE
  8
0
 62
     0
 10
61.3833
 20
174.352
 30
0.0
 11
61.7361
 21
174.396
 31
0.0
  0
LINE
  8
0
 62
     0
 10
61.7361
 20
174.396
 30
0.0
 11
63.2188
 21
174.468
 31
0.0
  0
LINE
  8
0
 62
     0
 10
63.2188
 20
174.468
 30
0.0
 11
66.609
 21
174.551
 31
0.0
  0
LINE
  8
0
 62
     0
 10
66.609
 20
174.551
 30
0.0
 11
71.5532
 21
174.6
 31
0.0
  0
LINE
  8
0
 62
     0
 10
71.5532
 20
174.6
 30
0.0
 11
76.4275
 21
174.617
 31
0.0
  0
LINE
  8
0
 62
     0
 10
76.4275
 20
174.617
 30
0.0
 11
78.0521
 21
174.617
 31
0.0
  0
LINE
  8
0
 62
     0
 10
78.0521
 20
174.617
 30
0.0
 11
94.9854
 21
174.352
 31
0.0
  0
LINE
  8
0
 62
     0
 10
94.9854
 20
174.352
 30
0.0
 11
95.9997
 21
174.22
 31
0.0
  0
LINE
  8
0
 62
     0
 10
95.9997
 20
174.22
 30
0.0
 11
101.005
 21
173.029
 31
0.0
  0
LINE
  8
0
 62
     0
 10
101.005
 20
173.029
 30
0.0
 11
105.922
 21
171.133
 31
0.0
  0
LINE
  8
0
 62
     0
 10
105.922
 20
171.133
 30
0.0
 11
106.892
 21
170.648
 31
0.0
  0
LINE
  8
0
 62
     0
 10
106.892
 20
170.648
 30
0.0
 11
108.31
 21
169.972
 31
0.0
  0
LINE
  8
0
 62
     0
 10
108.31
 20
169.972
 30
0.0
 11
112.349
 21
167.489
 31
0.0
  0
LINE
  8
0
 62
     0
 10
112.349
 20
167.489
 30
0.0
 11
117.078
 21
163.57
 31
0.0
  0
LINE
  8
0
 62
     0
 10
117.078
 20
163.57
 30
0.0
 11
121.08
 21
158.89
 31
0.0
  0
LINE
  8
0
 62
     0
 10
121.08
 20
158.89
 30
0.0
 11
123.646
 21
154.865
 31
0.0
  0
LINE
  8
0
 62
     0
 10
123.646
 20
154.865
 30
0.0
 11
124.354
 21
153.45
 31
0.0
  0
LINE
  8
0
 62
     0
 10
124.354
 20
153.45
 30
0.0
 11
124.839
 21
152.436
 31
0.0
  0
LINE
  8
0
 62
     0
 10
124.839
 20
152.436
 30
0.0
 11
126.669
 21
147.233
 31
0.0
  0
LINE
  8
0
 62
     0
 10
126.669
 20
147.233
 30
0.0
 11
127.706
 21
141.853
 31
0.0
  0
LINE
  8
0
 62
     0
 10
127.706
 20
141.853
 30
0.0
 11
127.794
 21
140.75
 31
0.0
  0
LINE
  8
0
 62
     0
 10
127.794
 20
140.75
 30
0.0
 11
128.058
 21
127.786
 31
0.0
  0
LINE
  8
0
 62
     0
 10
128.058
 20
127.786
 30
0.0
 11
128.058
 21
116.938
 31
0.0
  0
LINE
  8
0
 62
     0
 10
128.058
 20
116.938
 30
0.0
 11
127.794
 21
115.879
 31
0.0
  0
LINE
  8
0
 62
     0
 10
127.794
 20
115.879
 30
0.0
 11
127.617
 21
115.438
 31
0.0
  0
LINE
  8
0
 62
     0
 10
127.617
 20
115.438
 30
0.0
 11
126.669
 21
113.432
 31
0.0
  0
LINE
  8
0
 62
     0
 10
126.669
 20
113.432
 30
0.0
 11
125.633
 21
111.69
 31
0.0
  0
LINE
  8
0
 62
     0
 10
125.633
 20
111.69
 30
0.0
 11
125.413
 21
111.381
 31
0.0
  0
LINE
  8
0
 62
     0
 10
125.413
 20
111.381
 30
0.0
 11
125.308
 21
111.278
 31
0.0
  0
LINE
  8
0
 62
     0
 10
125.308
 20
111.278
 30
0.0
 11
124.979
 21
110.985
 31
0.0
  0
LINE
  8
0
 62
     0
 10
124.979
 20
110.985
 30
0.0
 11
124.073
 21
110.191
 31
0.0
  0
LINE
  8
0
 62
     0
 10
124.073
 20
110.191
 30
0.0
 11
122.696
 21
109
 31
0.0
  0
LINE
  8
0
 62
     0
 10
122.696
 20
109
 30
0.0
 11
120.849
 21
107.413
 31
0.0
  0
LINE
  8
0
 62
     0
 10
120.849
 20
107.413
 30
0.0
 11
118.529
 21
105.428
 31
0.0
  0
LINE
  8
0
 62
     0
 10
118.529
 20
105.428
 30
0.0
 11
115.739
 21
103.047
 31
0.0
  0
LINE
  8
0
 62
     0
 10
115.739
 20
103.047
 30
0.0
 11
112.477
 21
100.269
 31
0.0
  0
LINE
  8
0
 62
     0
 10
112.477
 20
100.269
 30
0.0
 11
109.677
 21
97.8877
 31
0.0
  0
LINE
  8
0
 62
     0
 10
109.677
 20
97.8877
 30
0.0
 11
108.744
 21
97.094
 31
0.0
  0
LINE
  8
0
 62
     0
 10
108.744
 20
97.094
 30
0.0
 11
107.812
 21
96.2875
 31
0.0
  0
LINE
  8
0
 62
     0
 10
107.812
 20
96.2875
 30
0.0
 11
105.019
 21
93.865
 31
0.0
  0
LINE
  8
0
 62
     0
 10
105.019
 20
93.865
 30
0.0
 11
101.782
 21
91.0579
 31
0.0
  0
LINE
  8
0
 62
     0
 10
101.782
 20
91.0579
 30
0.0
 11
99.0328
 21
88.6725
 31
0.0
  0
LINE
  8
0
 62
     0
 10
99.0328
 20
88.6725
 30
0.0
 11
96.7715
 21
86.7089
 31
0.0
  0
LINE
  8
0
 62
     0
 10
96.7715
 20
86.7089
 30
0.0
 11
94.9978
 21
85.1669
 31
0.0
  0
LINE
  8
0
 62
     0
 10
94.9978
 20
85.1669
 30
0.0
 11
93.7122
 21
84.0465
 31
0.0
  0
LINE
  8
0
 62
     0
 10
93.7122
 20
84.0465
 30
0.0
 11
92.9143
 21
83.348
 31
0.0
  0
LINE
  8
0
 62
     0
 10
92.9143
 20
83.348
 30
0.0
 11
92.6483
 21
83.1152
 31
0.0
  0
LINE
  8
0
 62
     0
 10
92.6483
 20
83.1152
 30
0.0
 11
92.6042
 21
83.0711
 31
0.0
  0
LINE
  8
0
 62
     0
 10
92.6042
 20
83.0711
 30
0.0
 11
92.571
 21
83.0379
 31
0.0
  0
LINE
  8
0
 62
     0
 10
92.571
 20
83.0379
 30
0.0
 11
92.9019
 21
82.5087
 31
0.0
  0
LINE
  8
0
 62
     0
 10
92.9019
 20
82.5087
 30
0.0
 11
94.0594
 21
81.0867
 31
0.0
  0
LINE
  8
0
 62
     0
 10
94.0594
 20
81.0867
 30
0.0
 11
96.0769
 21
78.8046
 31
0.0
  0
LINE
  8
0
 62
     0
 10
96.0769
 20
78.8046
 30
0.0
 11
98.2306
 21
76.4438
 31
0.0
  0
LINE
  8
0
 62
     0
 10
98.2306
 20
76.4438
 30
0.0
 11
98.9542
 21
75.6627
 31
0.0
  0
LINE
  8
0
 62
     0
 10
98.9542
 20
75.6627
 30
0.0
 11
105.569
 21
68.519
 31
0.0
  0
LINE
  8
0
 62
     0
 10
105.569
 20
68.519
 30
0.0
 11
106.36
 21
67.6822
 31
0.0
  0
LINE
  8
0
 62
     0
 10
106.36
 20
67.6822
 30
0.0
 11
108.736
 21
65.17
 31
0.0
  0
LINE
  8
0
 62
     0
 10
108.736
 20
65.17
 30
0.0
 11
111.489
 21
62.2681
 31
0.0
  0
LINE
  8
0
 62
     0
 10
111.489
 20
62.2681
 30
0.0
 11
113.829
 21
59.8124
 31
0.0
  0
LINE
  8
0
 62
     0
 10
113.829
 20
59.8124
 30
0.0
 11
115.755
 21
57.8033
 31
0.0
  0
LINE
  8
0
 62
     0
 10
115.755
 20
57.8033
 30
0.0
 11
117.268
 21
56.2405
 31
0.0
  0
LINE
  8
0
 62
     0
 10
117.268
 20
56.2405
 30
0.0
 11
118.368
 21
55.1243
 31
0.0
  0
LINE
  8
0
 62
     0
 10
118.368
 20
55.1243
 30
0.0
 11
119.054
 21
54.4544
 31
0.0
  0
LINE
  8
0
 62
     0
 10
119.054
 20
54.4544
 30
0.0
 11
119.258
 21
54.2315
 31
0.0
  0
LINE
  8
0
 62
     0
 10
119.258
 20
54.2315
 30
0.0
 11
119.327
 21
54.2315
 31
0.0
  0
LINE
  8
0
 62
     0
 10
119.327
 20
54.2315
 30
0.0
 11
125.942
 21
59.7877
 31
0.0
  0
LINE
  8
0
 62
     0
 10
125.942
 20
59.7877
 30
0.0
 11
126.806
 21
60.5331
 31
0.0
  0
LINE
  8
0
 62
     0
 10
126.806
 20
60.5331
 30
0.0
 11
129.431
 21
62.7309
 31
0.0
  0
LINE
  8
0
 62
     0
 10
129.431
 20
62.7309
 30
0.0
 11
132.226
 21
64.9471
 31
0.0
  0
LINE
  8
0
 62
     0
 10
132.226
 20
64.9471
 30
0.0
 11
134.326
 21
66.4351
 31
0.0
  0
LINE
  8
0
 62
     0
 10
134.326
 20
66.4351
 30
0.0
 11
135.378
 21
67.0638
 31
0.0
  0
LINE
  8
0
 62
     0
 10
135.378
 20
67.0638
 30
0.0
 11
135.731
 21
67.1961
 31
0.0
  0
LINE
  8
0
 62
     0
 10
135.731
 20
67.1961
 30
0.0
 11
136.172
 21
67.3724
 31
0.0
  0
LINE
  8
0
 62
     0
 10
136.172
 20
67.3724
 30
0.0
 11
138.509
 21
67.9235
 31
0.0
  0
LINE
  8
0
 62
     0
 10
138.509
 20
67.9235
 30
0.0
 11
141.023
 21
68.0339
 31
0.0
  0
LINE
  8
0
 62
     0
 10
141.023
 20
68.0339
 30
0.0
 11
141.552
 21
67.9898
 31
0.0
  0
LINE
  8
0
 62
     0
 10
141.552
 20
67.9898
 30
0.0
 11
141.883
 21
67.9898
 31
0.0
  0
LINE
  8
0
 62
     0
 10
141.883
 20
67.9898
 30
0.0
 11
142.627
 21
67.9898
 31
0.0
  0
LINE
  8
0
 62
     0
 10
142.627
 20
67.9898
 30
0.0
 11
142.875
 21
67.9898
 31
0.0
  0
LINE
  8
0
 62
     0
 10
142.875
 20
67.9898
 30
0.0
 11
143.769
 21
67.8049
 31
0.0
  0
LINE
  8
0
 62
     0
 10
143.769
 20
67.8049
 30
0.0
 11
146.364
 21
66.8154
 31
0.0
  0
LINE
  8
0
 62
     0
 10
146.364
 20
66.8154
 30
0.0
 11
149.159
 21
64.8808
 31
0.0
  0
LINE
  8
0
 62
     0
 10
149.159
 20
64.8808
 30
0.0
 11
151.259
 21
62.1852
 31
0.0
  0
LINE
  8
0
 62
     0
 10
151.259
 20
62.1852
 30
0.0
 11
152.418
 21
59.6223
 31
0.0
  0
LINE
  8
0
 62
     0
 10
152.418
 20
59.6223
 30
0.0
 11
152.665
 21
58.7294
 31
0.0
  0
LINE
  8
0
 62
     0
 10
152.665
 20
58.7294
 30
0.0
 11
152.709
 21
58.4648
 31
0.0
  0
LINE
  8
0
 62
     0
 10
152.709
 20
58.4648
 30
0.0
 11
152.929
 21
56.2818
 31
0.0
  0
LINE
  8
0
 62
     0
 10
152.929
 20
56.2818
 30
0.0
 11
152.929
 21
55.5544
 31
0.0
  0
LINE
  8
0
 62
     0
 10
152.929
 20
55.5544
 30
0.0
 11
152.929
 21
54.4961
 31
0.0
  0
LINE
  8
0
 62
     0
 10
152.929
 20
54.4961
 30
0.0
 11
152.268
 21
51.3211
 31
0.0
  0
LINE
  8
0
 62
     0
 10
152.268
 20
51.3211
 30
0.0
 11
150.724
 21
48.1902
 31
0.0
  0
LINE
  8
0
 62
     0
 10
150.724
 20
48.1902
 30
0.0
 11
150.283
 21
47.6169
 31
0.0
  0
LINE
  8
0
 62
     0
 10
150.283
 20
47.6169
 30
0.0
 11
150.151
 21
47.4405
 31
0.0
  0
LINE
  8
0
 62
     0
 10
150.151
 20
47.4405
 30
0.0
 11
149.523
 21
46.8066
 31
0.0
  0
LINE
  8
0
 62
     0
 10
149.523
 20
46.8066
 30
0.0
 11
148.034
 21
45.4339
 31
0.0
  0
LINE
  8
0
 62
     0
 10
148.034
 20
45.4339
 30
0.0
 11
145.819
 21
43.4993
 31
0.0
  0
LINE
  8
0
 62
     0
 10
145.819
 20
43.4993
 30
0.0
 11
143.614
 21
41.6235
 31
0.0
  0
LINE
  8
0
 62
     0
 10
143.614
 20
41.6235
 30
0.0
 11
142.875
 21
41.0023
 31
0.0
  0
LINE
  8
0
 62
     0
 10
142.875
 20
41.0023
 30
0.0
 11
136.525
 21
35.7106
 31
0.0
  0
LINE
  8
0
 62
     0
 10
136.525
 20
35.7106
 30
0.0
 11
137.054
 21
35.1813
 31
0.0
  0
LINE
  8
0
 62
     0
 10
137.054
 20
35.1813
 30
0.0
 11
137.142
 21
35.0931
 31
0.0
  0
LINE
  8
0
 62
     0
 10
137.142
 20
35.0931
 30
0.0
 11
137.682
 21
34.5199
 31
0.0
  0
LINE
  8
0
 62
     0
 10
137.682
 20
34.5199
 30
0.0
 11
139.039
 21
33.0647
 31
0.0
  0
LINE
  8
0
 62
     0
 10
139.039
 20
33.0647
 30
0.0
 11
141.122
 21
30.8157
 31
0.0
  0
LINE
  8
0
 62
     0
 10
141.122
 20
30.8157
 30
0.0
 11
143.231
 21
28.5337
 31
0.0
  0
LINE
  8
0
 62
     0
 10
143.231
 20
28.5337
 30
0.0
 11
143.933
 21
27.773
 31
0.0
  0
LINE
  8
0
 62
     0
 10
143.933
 20
27.773
 30
0.0
 11
144.635
 21
27.0123
 31
0.0
  0
LINE
  8
0
 62
     0
 10
144.635
 20
27.0123
 30
0.0
 11
146.745
 21
24.7303
 31
0.0
  0
LINE
  8
0
 62
     0
 10
146.745
 20
24.7303
 30
0.0
 11
148.828
 21
22.4813
 31
0.0
  0
LINE
  8
0
 62
     0
 10
148.828
 20
22.4813
 30
0.0
 11
150.184
 21
21.0261
 31
0.0
  0
LINE
  8
0
 62
     0
 10
150.184
 20
21.0261
 30
0.0
 11
150.724
 21
20.4529
 31
0.0
  0
LINE
  8
0
 62
     0
 10
150.724
 20
20.4529
 30
0.0
 11
150.813
 21
20.3647
 31
0.0
  0
LINE
  8
0
 62
     0
 10
150.813
 20
20.3647
 30
0.0
 11
151.223
 21
19.7638
 31
0.0
  0
LINE
  8
0
 62
     0
 10
151.223
 20
19.7638
 30
0.0
 11
152.202
 21
17.785
 31
0.0
  0
LINE
  8
0
 62
     0
 10
152.202
 20
17.785
 30
0.0
 11
152.929
 21
15.073
 31
0.0
  0
LINE
  8
0
 62
     0
 10
152.929
 20
15.073
 30
0.0
 11
152.995
 21
12.2287
 31
0.0
  0
LINE
  8
0
 62
     0
 10
152.995
 20
12.2287
 30
0.0
 11
152.619
 21
9.9756
 31
0.0
  0
LINE
  8
0
 62
     0
 10
152.619
 20
9.9756
 30
0.0
 11
152.4
 21
9.25216
 31
0.0
  0
LINE
  8
0
 62
     0
 10
152.4
 20
9.25216
 30
0.0
 11
152.268
 21
8.723
 31
0.0
  0
LINE
  8
0
 62
     0
 10
152.268
 20
8.723
 30
0.0
 11
151.143
 21
6.2756
 31
0.0
  0
LINE
  8
0
 62
     0
 10
151.143
 20
6.2756
 30
0.0
 11
149.401
 21
4.09279
 31
0.0
  0
LINE
  8
0
 62
     0
 10
149.401
 20
4.09279
 30
0.0
 11
148.96
 21
3.69591
 31
0.0
  0
LINE
  8
0
 62
     0
 10
148.96
 20
3.69591
 30
0.0
 11
148.424
 21
3.19154
 31
0.0
  0
LINE
  8
0
 62
     0
 10
148.424
 20
3.19154
 30
0.0
 11
146.596
 21
1.90996
 31
0.0
  0
LINE
  8
0
 62
     0
 10
146.596
 20
1.90996
 30
0.0
 11
144
 21
0.785481
 31
0.0
  0
LINE
  8
0
 62
     0
 10
144
 20
0.785481
 30
0.0
 11
141.172
 21
0.322461
 31
0.0
  0
LINE
  8
0
 62
     0
 10
141.172
 20
0.322461
 30
0.0
 11
138.864
 21
0.396875
 31
0.0
  0
LINE
  8
0
 62
     0
 10
138.864
 20
0.396875
 30
0.0
 11
138.113
 21
0.520898
 31
0.0
  0
LINE
  8
0
 62
     0
 10
138.113
 20
0.520898
 30
0.0
 11
134.938
 21
1.57923
 31
0.0
  0
LINE
  8
0
 62
     0
 10
134.938
 20
1.57923
 30
0.0
 11
134.585
 21
1.75562
 31
0.0
  0
LINE
  8
0
 62
     0
 10
134.585
 20
1.75562
 30
0.0
 11
133.499
 21
2.57142
 31
0.0
  0
LINE
  8
0
 62
     0
 10
133.499
 20
2.57142
 30
0.0
 11
131.3
 21
4.48966
 31
0.0
  0
LINE
  8
0
 62
     0
 10
131.3
 20
4.48966
 30
0.0
 11
128.339
 21
7.33393
 31
0.0
  0
LINE
  8
0
 62
     0
 10
128.339
 20
7.33393
 30
0.0
 11
125.539
 21
10.1534
 31
0.0
  0
LINE
  8
0
 62
     0
 10
125.539
 20
10.1534
 30
0.0
 11
124.619
 21
11.1042
 31
0.0
  0
LINE
  8
0
 62
     0
 10
124.619
 20
11.1042
 30
0.0
 11
123.835
 21
11.9751
 31
0.0
  0
LINE
  8
0
 62
     0
 10
123.835
 20
11.9751
 30
0.0
 11
121.477
 21
14.5769
 31
0.0
  0
LINE
  8
0
 62
     0
 10
121.477
 20
14.5769
 30
0.0
 11
119.195
 21
17.0574
 31
0.0
  0
LINE
  8
0
 62
     0
 10
119.195
 20
17.0574
 30
0.0
 11
117.773
 21
18.5456
 31
0.0
  0
LINE
  8
0
 62
     0
 10
117.773
 20
18.5456
 30
0.0
 11
117.351
 21
19.0417
 31
0.0
  0
LINE
  8
0
 62
     0
 10
117.351
 20
19.0417
 30
0.0
 11
117.21
 21
19.0417
 31
0.0
  0
LINE
  8
0
 62
     0
 10
117.21
 20
19.0417
 30
0.0
 11
117.21
 21
19.0417
 31
0.0
  0
LINE
  8
0
 62
     0
 10
117.21
 20
19.0417
 30
0.0
 11
116.632
 21
18.5456
 31
0.0
  0
LINE
  8
0
 62
     0
 10
116.632
 20
18.5456
 30
0.0
 11
114.895
 21
17.0574
 31
0.0
  0
LINE
  8
0
 62
     0
 10
114.895
 20
17.0574
 30
0.0
 11
112.001
 21
14.5769
 31
0.0
  0
LINE
  8
0
 62
     0
 10
112.001
 20
14.5769
 30
0.0
 11
108.963
 21
11.9724
 31
0.0
  0
LINE
  8
0
 62
     0
 10
108.963
 20
11.9724
 30
0.0
 11
107.95
 21
11.1042
 31
0.0
  0
LINE
  8
0
 62
     0
 10
107.95
 20
11.1042
 30
0.0
 11
106.952
 21
10.254
 31
0.0
  0
LINE
  8
0
 62
     0
 10
106.952
 20
10.254
 30
0.0
 11
103.965
 21
7.69772
 31
0.0
  0
LINE
  8
0
 62
     0
 10
103.965
 20
7.69772
 30
0.0
 11
101.005
 21
5.15112
 31
0.0
  0
LINE
  8
0
 62
     0
 10
101.005
 20
5.15112
 30
0.0
 11
99.0699
 21
3.46439
 31
0.0
  0
LINE
  8
0
 62
     0
 10
99.0699
 20
3.46439
 30
0.0
 11
98.2927
 21
2.76986
 31
0.0
  0
LINE
  8
0
 62
     0
 10
98.2927
 20
2.76986
 30
0.0
 11
98.1604
 21
2.63756
 31
0.0
  0
LINE
  8
0
 62
     0
 10
98.1604
 20
2.63756
 30
0.0
 11
97.8517
 21
2.41708
 31
0.0
  0
LINE
  8
0
 62
     0
 10
97.8517
 20
2.41708
 30
0.0
 11
96.176
 21
1.44694
 31
0.0
  0
LINE
  8
0
 62
     0
 10
96.176
 20
1.44694
 30
0.0
 11
94.324
 21
0.653189
 31
0.0
  0
LINE
  8
0
 62
     0
 10
94.324
 20
0.653189
 30
0.0
 11
93.9271
 21
0.520898
 31
0.0
  0
LINE
  8
0
 62
     0
 10
93.9271
 20
0.520898
 30
0.0
 11
93.7507
 21
0.4768
 31
0.0
  0
LINE
  8
0
 62
     0
 10
93.7507
 20
0.4768
 30
0.0
 11
92.571
 21
0.405144
 31
0.0
  0
LINE
  8
0
 62
     0
 10
92.571
 20
0.405144
 30
0.0
 11
89.5615
 21
0.322461
 31
0.0
  0
LINE
  8
0
 62
     0
 10
89.5615
 20
0.322461
 30
0.0
 11
84.8981
 21
0.272852
 31
0.0
  0
LINE
  8
0
 62
     0
 10
84.8981
 20
0.272852
 30
0.0
 11
80.1606
 21
0.256315
 31
0.0
  0
LINE
  8
0
 62
     0
 10
80.1606
 20
0.256315
 30
0.0
 11
78.5813
 21
0.256315
 31
0.0
  0
LINE
  8
0
 62
     0
 10
78.5813
 20
0.256315
 30
0.0
 11
62.1771
 21
0.520898
 31
0.0
  0
LINE
  8
0
 62
     0
 10
62.1771
 20
0.520898
 30
0.0
 11
61.032
 21
0.650434
 31
0.0
  0
LINE
  8
0
 62
     0
 10
61.032
 20
0.650434
 30
0.0
 11
57.6213
 21
1.26917
 31
0.0
  0
LINE
  8
0
 62
     0
 10
57.6213
 20
1.26917
 30
0.0
 11
53.3467
 21
2.45566
 31
0.0
  0
LINE
  8
0
 62
     0
 10
53.3467
 20
2.45566
 30
0.0
 11
49.3529
 21
4.08037
 31
0.0
  0
LINE
  8
0
 62
     0
 10
49.3529
 20
4.08037
 30
0.0
 11
45.6406
 21
6.14331
 31
0.0
  0
LINE
  8
0
 62
     0
 10
45.6406
 20
6.14331
 30
0.0
 11
42.2092
 21
8.64443
 31
0.0
  0
LINE
  8
0
 62
     0
 10
42.2092
 20
8.64443
 30
0.0
 11
39.0592
 21
11.5838
 31
0.0
  0
LINE
  8
0
 62
     0
 10
39.0592
 20
11.5838
 30
0.0
 11
36.1901
 21
14.9614
 31
0.0
  0
LINE
  8
0
 62
     0
 10
36.1901
 20
14.9614
 30
0.0
 11
34.1988
 21
17.7932
 31
0.0
  0
LINE
  8
0
 62
     0
 10
34.1988
 20
17.7932
 30
0.0
 11
33.6021
 21
18.7772
 31
0.0
  0
LINE
  8
0
 62
     0
 10
33.6021
 20
18.7772
 30
0.0
 11
32.8965
 21
19.9678
 31
0.0
  0
LINE
  8
0
 62
     0
 10
32.8965
 20
19.9678
 30
0.0
 11
30.2286
 21
26.1855
 31
0.0
  0
LINE
  8
0
 62
     0
 10
30.2286
 20
26.1855
 30
0.0
 11
28.7073
 21
32.756
 31
0.0
  0
LINE
  8
0
 62
     0
 10
28.7073
 20
32.756
 30
0.0
 11
28.575
 21
34.123
 31
0.0
  0
LINE
  8
0
 62
     0
 10
28.575
 20
34.123
 30
0.0
 11
28.5309
 21
34.4758
 31
0.0
  0
LINE
  8
0
 62
     0
 10
28.5309
 20
34.4758
 30
0.0
 11
28.4593
 21
35.7106
 31
0.0
  0
LINE
  8
0
 62
     0
 10
28.4593
 20
35.7106
 30
0.0
 11
28.3766
 21
38.3565
 31
0.0
  0
LINE
  8
0
 62
     0
 10
28.3766
 20
38.3565
 30
0.0
 11
28.327
 21
42.0606
 31
0.0
  0
LINE
  8
0
 62
     0
 10
28.327
 20
42.0606
 30
0.0
 11
28.3104
 21
45.6325
 31
0.0
  0
LINE
  8
0
 62
     0
 10
28.3104
 20
45.6325
 30
0.0
 11
28.3104
 21
46.8231
 31
0.0
  0
LINE
  8
0
 62
     0
 10
28.3104
 20
46.8231
 30
0.0
 11
28.3104
 21
47.9721
 31
0.0
  0
LINE
  8
0
 62
     0
 10
28.3104
 20
47.9721
 30
0.0
 11
28.327
 21
51.4202
 31
0.0
  0
LINE
  8
0
 62
     0
 10
28.327
 20
51.4202
 30
0.0
 11
28.3766
 21
54.8929
 31
0.0
  0
LINE
  8
0
 62
     0
 10
28.3766
 20
54.8929
 30
0.0
 11
28.4593
 21
57.241
 31
0.0
  0
LINE
  8
0
 62
     0
 10
28.4593
 20
57.241
 30
0.0
 11
28.5309
 21
58.2443
 31
0.0
  0
LINE
  8
0
 62
     0
 10
28.5309
 20
58.2443
 30
0.0
 11
28.575
 21
58.4648
 31
0.0
  0
LINE
  8
0
 62
     0
 10
28.575
 20
58.4648
 30
0.0
 11
28.7073
 21
59.0381
 31
0.0
  0
LINE
  8
0
 62
     0
 10
28.7073
 20
59.0381
 30
0.0
 11
29.8318
 21
61.7058
 31
0.0
  0
LINE
  8
0
 62
     0
 10
29.8318
 20
61.7058
 30
0.0
 11
31.5736
 21
64.1092
 31
0.0
  0
LINE
  8
0
 62
     0
 10
31.5736
 20
64.1092
 30
0.0
 11
32.0146
 21
64.5502
 31
0.0
  0
LINE
  8
0
 62
     0
 10
32.0146
 20
64.5502
 30
0.0
 11
32.191
 21
64.7266
 31
0.0
  0
LINE
  8
0
 62
     0
 10
32.191
 20
64.7266
 30
0.0
 11
33.1887
 21
65.6086
 31
0.0
  0
LINE
  8
0
 62
     0
 10
33.1887
 20
65.6086
 30
0.0
 11
35.6528
 21
67.7252
 31
0.0
  0
LINE
  8
0
 62
     0
 10
35.6528
 20
67.7252
 30
0.0
 11
39.4063
 21
70.9002
 31
0.0
  0
LINE
  8
0
 62
     0
 10
39.4063
 20
70.9002
 30
0.0
 11
43.1878
 21
74.0777
 31
0.0
  0
LINE
  8
0
 62
     0
 10
43.1878
 20
74.0777
 30
0.0
 11
44.45
 21
75.1336
 31
0.0
  0
LINE
  8
0
 62
     0
 10
44.45
 20
75.1336
 30
0.0
 11
45.6406
 21
76.1792
 31
0.0
  0
LINE
  8
0
 62
     0
 10
45.6406
 20
76.1792
 30
0.0
 11
49.2125
 21
79.3171
 31
0.0
  0
LINE
  8
0
 62
     0
 10
49.2125
 20
79.3171
 30
0.0
 11
52.6521
 21
82.3433
 31
0.0
  0
LINE
  8
0
 62
     0
 10
52.6521
 20
82.3433
 30
0.0
 11
54.7688
 21
84.2119
 31
0.0
  0
LINE
  8
0
 62
     0
 10
54.7688
 20
84.2119
 30
0.0
 11
55.5184
 21
84.879
 31
0.0
  0
LINE
  8
0
 62
     0
 10
55.5184
 20
84.879
 30
0.0
 11
55.5625
 21
84.9231
 31
0.0
  0
LINE
  8
0
 62
     0
 10
55.5625
 20
84.9231
 30
0.0
 11
43.3917
 21
98.1523
 31
0.0
  0
LINE
  8
0
 62
     0
 10
43.3917
 20
98.1523
 30
0.0
 11
42.6752
 21
98.9143
 31
0.0
  0
LINE
  8
0
 62
     0
 10
42.6752
 20
98.9143
 30
0.0
 11
40.531
 21
101.203
 31
0.0
  0
LINE
  8
0
 62
     0
 10
40.531
 20
101.203
 30
0.0
 11
38.034
 21
103.874
 31
0.0
  0
LINE
  8
0
 62
     0
 10
38.034
 20
103.874
 30
0.0
 11
35.9008
 21
106.164
 31
0.0
  0
LINE
  8
0
 62
     0
 10
35.9008
 20
106.164
 30
0.0
 11
34.1313
 21
108.074
 31
0.0
  0
LINE
  8
0
 62
     0
 10
34.1313
 20
108.074
 30
0.0
 11
32.7256
 21
109.604
 31
0.0
  0
LINE
  8
0
 62
     0
 10
32.7256
 20
109.604
 30
0.0
 11
31.6839
 21
110.753
 31
0.0
  0
LINE
  8
0
 62
     0
 10
31.6839
 20
110.753
 30
0.0
 11
31.0059
 21
111.522
 31
0.0
  0
LINE
  8
0
 62
     0
 10
31.0059
 20
111.522
 30
0.0
 11
30.7606
 21
111.807
 31
0.0
  0
LINE
  8
0
 62
     0
 10
30.7606
 20
111.807
 30
0.0
 11
30.6917
 21
111.911
 31
0.0
  0
LINE
  8
0
 62
     0
 10
30.6917
 20
111.911
 30
0.0
 11
30.4271
 21
112.219
 31
0.0
  0
LINE
  8
0
 62
     0
 10
30.4271
 20
112.219
 30
0.0
 11
29.3688
 21
113.961
 31
0.0
  0
LINE
  8
0
 62
     0
 10
29.3688
 20
113.961
 30
0.0
 11
28.6632
 21
115.968
 31
0.0
  0
LINE
  8
0
 62
     0
 10
28.6632
 20
115.968
 30
0.0
 11
28.575
 21
116.409
 31
0.0
  0
LINE
  8
0
 62
     0
 10
28.575
 20
116.409
 30
0.0
 11
28.5309
 21
116.629
 31
0.0
  0
LINE
  8
0
 62
     0
 10
28.5309
 20
116.629
 30
0.0
 11
28.4593
 21
117.649
 31
0.0
  0
LINE
  8
0
 62
     0
 10
28.4593
 20
117.649
 30
0.0
 11
28.3766
 21
120.046
 31
0.0
  0
LINE
  8
0
 62
     0
 10
28.3766
 20
120.046
 30
0.0
 11
28.327
 21
123.602
 31
0.0
  0
LINE
  8
0
 62
     0
 10
28.327
 20
123.602
 30
0.0
 11
28.3104
 21
127.137
 31
0.0
  0
LINE
  8
0
 62
     0
 10
28.3104
 20
127.137
 30
0.0
 11
28.3104
 21
128.315
 31
0.0
  0
LINE
  8
0
 62
     0
 10
28.3104
 20
128.315
 30
0.0
 11
28.3104
 21
129.803
 31
0.0
  0
LINE
  8
0
 62
     0
 10
28.3104
 20
129.803
 30
0.0
 11
28.3766
 21
134.268
 31
0.0
  0
LINE
  8
0
 62
     0
 10
28.3766
 20
134.268
 30
0.0
 11
28.575
 21
139.163
 31
0.0
  0
LINE
  8
0
 62
     0
 10
28.575
 20
139.163
 30
0.0
 11
28.9057
 21
142.999
 31
0.0
  0
LINE
  8
0
 62
     0
 10
28.9057
 20
142.999
 30
0.0
 11
29.2075
 21
145.094
 31
0.0
  0
LINE
  8
0
 62
     0
 10
29.2075
 20
145.094
 30
0.0
 11
29.3688
 21
145.777
 31
0.0
  0
LINE
  8
0
 62
     0
 10
29.3688
 20
145.777
 30
0.0
 11
29.7849
 21
147.509
 31
0.0
  0
LINE
  8
0
 62
     0
 10
29.7849
 20
147.509
 30
0.0
 11
31.6508
 21
152.557
 31
0.0
  0
LINE
  8
0
 62
     0
 10
31.6508
 20
152.557
 30
0.0
 11
35.0573
 21
158.61
 31
0.0
  0
LINE
  8
0
 62
     0
 10
35.0573
 20
158.61
 30
0.0
 11
39.5884
 21
163.934
 31
0.0
  0
LINE
  8
0
 62
     0
 10
39.5884
 20
163.934
 30
0.0
 11
43.743
 21
167.51
 31
0.0
  0
LINE
  8
0
 62
     0
 10
43.743
 20
167.51
 30
0.0
 11
45.2438
 21
168.531
 31
0.0
  0
LINE
  8
0
 62
     0
 10
45.2438
 20
168.531
 30
0.0
 11
46.4344
 21
169.281
 31
0.0
  0
LINE
  8
0
 62
     0
 10
46.4344
 20
169.281
 30
0.0
 11
52.8507
 21
172.236
 31
0.0
  0
LINE
  8
0
 62
     0
 10
52.8507
 20
172.236
 30
0.0
 11
59.884
 21
174.132
 31
0.0
  0
LINE
  8
0
 62
     0
 10
59.884
 20
174.132
 30
0.0
 11
61.3833
 21
174.352
 31
0.0
  0
LINE
  8
0
 62
     0
 10
93.3979
 20
148.952
 30
0.0
 11
93.2656
 21
148.996
 31
0.0
  0
LINE
  8
0
 62
     0
 10
93.2656
 20
148.996
 30
0.0
 11
92.1741
 21
149.068
 31
0.0
  0
LINE
  8
0
 62
     0
 10
92.1741
 20
149.068
 30
0.0
 11
89.2969
 21
149.151
 31
0.0
  0
LINE
  8
0
 62
     0
 10
89.2969
 20
149.151
 30
0.0
 11
84.7658
 21
149.2
 31
0.0
  0
LINE
  8
0
 62
     0
 10
84.7658
 20
149.2
 30
0.0
 11
80.1275
 21
149.217
 31
0.0
  0
LINE
  8
0
 62
     0
 10
80.1275
 20
149.217
 30
0.0
 11
78.5813
 21
149.217
 31
0.0
  0
LINE
  8
0
 62
     0
 10
78.5813
 20
149.217
 30
0.0
 11
64.0292
 21
149.217
 31
0.0
  0
LINE
  8
0
 62
     0
 10
64.0292
 20
149.217
 30
0.0
 11
63.1335
 21
149.062
 31
0.0
  0
LINE
  8
0
 62
     0
 10
63.1335
 20
149.062
 30
0.0
 11
60.5236
 21
148.159
 31
0.0
  0
LINE
  8
0
 62
     0
 10
60.5236
 20
148.159
 30
0.0
 11
57.6792
 21
146.306
 31
0.0
  0
LINE
  8
0
 62
     0
 10
57.6792
 20
146.306
 30
0.0
 11
55.4965
 21
143.661
 31
0.0
  0
LINE
  8
0
 62
     0
 10
55.4965
 20
143.661
 30
0.0
 11
54.2505
 21
141.114
 31
0.0
  0
LINE
  8
0
 62
     0
 10
54.2505
 20
141.114
 30
0.0
 11
53.975
 21
140.221
 31
0.0
  0
LINE
  8
0
 62
     0
 10
53.975
 20
140.221
 30
0.0
 11
53.9309
 21
140.001
 31
0.0
  0
LINE
  8
0
 62
     0
 10
53.9309
 20
140.001
 30
0.0
 11
53.8593
 21
139.196
 31
0.0
  0
LINE
  8
0
 62
     0
 10
53.8593
 20
139.196
 30
0.0
 11
53.7767
 21
137.443
 31
0.0
  0
LINE
  8
0
 62
     0
 10
53.7767
 20
137.443
 30
0.0
 11
53.727
 21
134.962
 31
0.0
  0
LINE
  8
0
 62
     0
 10
53.727
 20
134.962
 30
0.0
 11
53.7104
 21
132.556
 31
0.0
  0
LINE
  8
0
 62
     0
 10
53.7104
 20
132.556
 30
0.0
 11
53.7104
 21
131.754
 31
0.0
  0
LINE
  8
0
 62
     0
 10
53.7104
 20
131.754
 30
0.0
 11
53.4458
 21
124.346
 31
0.0
  0
LINE
  8
0
 62
     0
 10
53.4458
 20
124.346
 30
0.0
 11
64.0292
 21
112.969
 31
0.0
  0
LINE
  8
0
 62
     0
 10
64.0292
 20
112.969
 30
0.0
 11
65.188
 21
111.723
 31
0.0
  0
LINE
  8
0
 62
     0
 10
65.188
 20
111.723
 30
0.0
 11
68.676
 21
107.991
 31
0.0
  0
LINE
  8
0
 62
     0
 10
68.676
 20
107.991
 30
0.0
 11
72.033
 21
104.436
 31
0.0
  0
LINE
  8
0
 62
     0
 10
72.033
 20
104.436
 30
0.0
 11
74.0999
 21
102.303
 31
0.0
  0
LINE
  8
0
 62
     0
 10
74.0999
 20
102.303
 30
0.0
 11
74.6827
 21
101.592
 31
0.0
  0
LINE
  8
0
 62
     0
 10
74.6827
 20
101.592
 30
0.0
 11
74.8771
 21
101.592
 31
0.0
  0
LINE
  8
0
 62
     0
 10
74.8771
 20
101.592
 30
0.0
 11
88.9
 21
113.234
 31
0.0
  0
LINE
  8
0
 62
     0
 10
88.9
 20
113.234
 30
0.0
 11
102.923
 21
125.14
 31
0.0
  0
LINE
  8
0
 62
     0
 10
102.923
 20
125.14
 30
0.0
 11
102.658
 21
132.019
 31
0.0
  0
LINE
  8
0
 62
     0
 10
102.658
 20
132.019
 30
0.0
 11
102.658
 21
132.9
 31
0.0
  0
LINE
  8
0
 62
     0
 10
102.658
 20
132.9
 30
0.0
 11
102.576
 21
135.541
 31
0.0
  0
LINE
  8
0
 62
     0
 10
102.576
 20
135.541
 30
0.0
 11
102.328
 21
138.435
 31
0.0
  0
LINE
  8
0
 62
     0
 10
102.328
 20
138.435
 30
0.0
 11
101.914
 21
140.7
 31
0.0
  0
LINE
  8
0
 62
     0
 10
101.914
 20
140.7
 30
0.0
 11
101.527
 21
141.953
 31
0.0
  0
LINE
  8
0
 62
     0
 10
101.527
 20
141.953
 30
0.0
 11
101.335
 21
142.338
 31
0.0
  0
LINE
  8
0
 62
     0
 10
101.335
 20
142.338
 30
0.0
 11
101.049
 21
142.941
 31
0.0
  0
LINE
  8
0
 62
     0
 10
101.049
 20
142.941
 30
0.0
 11
99.9465
 21
144.636
 31
0.0
  0
LINE
  8
0
 62
     0
 10
99.9465
 20
144.636
 30
0.0
 11
98.1604
 21
146.505
 31
0.0
  0
LINE
  8
0
 62
     0
 10
98.1604
 20
146.505
 30
0.0
 11
95.9778
 21
147.943
 31
0.0
  0
LINE
  8
0
 62
     0
 10
95.9778
 20
147.943
 30
0.0
 11
94.0608
 21
148.763
 31
0.0
  0
LINE
  8
0
 62
     0
 10
94.0608
 20
148.763
 30
0.0
 11
93.3979
 21
148.952
 31
0.0
  0
LINE
  8
0
 62
     0
 10
86.5188
 20
52.1148
 30
0.0
 11
85.743
 21
52.9527
 31
0.0
  0
LINE
  8
0
 62
     0
 10
85.743
 20
52.9527
 30
0.0
 11
83.414
 21
55.4634
 31
0.0
  0
LINE
  8
0
 62
     0
 10
83.414
 20
55.4634
 30
0.0
 11
80.7145
 21
58.3653
 31
0.0
  0
LINE
  8
0
 62
     0
 10
80.7145
 20
58.3653
 30
0.0
 11
78.42
 21
60.821
 31
0.0
  0
LINE
  8
0
 62
     0
 10
78.42
 20
60.821
 30
0.0
 11
76.5309
 21
62.8304
 31
0.0
  0
LINE
  8
0
 62
     0
 10
76.5309
 20
62.8304
 30
0.0
 11
75.0464
 21
64.3929
 31
0.0
  0
LINE
  8
0
 62
     0
 10
75.0464
 20
64.3929
 30
0.0
 11
73.9676
 21
65.5091
 31
0.0
  0
LINE
  8
0
 62
     0
 10
73.9676
 20
65.5091
 30
0.0
 11
73.2938
 21
66.179
 31
0.0
  0
LINE
  8
0
 62
     0
 10
73.2938
 20
66.179
 30
0.0
 11
73.0913
 21
66.4023
 31
0.0
  0
LINE
  8
0
 62
     0
 10
73.0913
 20
66.4023
 30
0.0
 11
73.025
 21
66.4023
 31
0.0
  0
LINE
  8
0
 62
     0
 10
73.025
 20
66.4023
 30
0.0
 11
63.2354
 21
57.9356
 31
0.0
  0
LINE
  8
0
 62
     0
 10
63.2354
 20
57.9356
 30
0.0
 11
53.4458
 21
49.7336
 31
0.0
  0
LINE
  8
0
 62
     0
 10
53.4458
 20
49.7336
 30
0.0
 11
53.7104
 21
42.8544
 31
0.0
  0
LINE
  8
0
 62
     0
 10
53.7104
 20
42.8544
 30
0.0
 11
53.7104
 21
41.9777
 31
0.0
  0
LINE
  8
0
 62
     0
 10
53.7104
 20
41.9777
 30
0.0
 11
53.7767
 21
39.3485
 31
0.0
  0
LINE
  8
0
 62
     0
 10
53.7767
 20
39.3485
 30
0.0
 11
53.975
 21
36.5044
 31
0.0
  0
LINE
  8
0
 62
     0
 10
53.975
 20
36.5044
 30
0.0
 11
54.3059
 21
34.3214
 31
0.0
  0
LINE
  8
0
 62
     0
 10
54.3059
 20
34.3214
 30
0.0
 11
54.6075
 21
33.1611
 31
0.0
  0
LINE
  8
0
 62
     0
 10
54.6075
 20
33.1611
 30
0.0
 11
54.7688
 21
32.8001
 31
0.0
  0
LINE
  8
0
 62
     0
 10
54.7688
 20
32.8001
 30
0.0
 11
55.087
 21
32.1937
 31
0.0
  0
LINE
  8
0
 62
     0
 10
55.087
 20
32.1937
 30
0.0
 11
56.2571
 21
30.485
 31
0.0
  0
LINE
  8
0
 62
     0
 10
56.2571
 20
30.485
 30
0.0
 11
58.076
 21
28.5667
 31
0.0
  0
LINE
  8
0
 62
     0
 10
58.076
 20
28.5667
 30
0.0
 11
60.2259
 21
27.0454
 31
0.0
  0
LINE
  8
0
 62
     0
 10
60.2259
 20
27.0454
 30
0.0
 11
62.0656
 21
26.1455
 31
0.0
  0
LINE
  8
0
 62
     0
 10
62.0656
 20
26.1455
 30
0.0
 11
62.7063
 21
25.9209
 31
0.0
  0
LINE
  8
0
 62
     0
 10
62.7063
 20
25.9209
 30
0.0
 11
62.9267
 21
25.8768
 31
0.0
  0
LINE
  8
0
 62
     0
 10
62.9267
 20
25.8768
 30
0.0
 11
63.9632
 21
25.8051
 31
0.0
  0
LINE
  8
0
 62
     0
 10
63.9632
 20
25.8051
 30
0.0
 11
66.4104
 21
25.7225
 31
0.0
  0
LINE
  8
0
 62
     0
 10
66.4104
 20
25.7225
 30
0.0
 11
70.0486
 21
25.6728
 31
0.0
  0
LINE
  8
0
 62
     0
 10
70.0486
 20
25.6728
 30
0.0
 11
73.6699
 21
25.6563
 31
0.0
  0
LINE
  8
0
 62
     0
 10
73.6699
 20
25.6563
 30
0.0
 11
74.8771
 21
25.6563
 31
0.0
  0
LINE
  8
0
 62
     0
 10
74.8771
 20
25.6563
 30
0.0
 11
85.9896
 21
25.6563
 31
0.0
  0
LINE
  8
0
 62
     0
 10
85.9896
 20
25.6563
 30
0.0
 11
92.6042
 21
31.2126
 31
0.0
  0
LINE
  8
0
 62
     0
 10
92.6042
 20
31.2126
 30
0.0
 11
93.3319
 21
31.8534
 31
0.0
  0
LINE
  8
0
 62
     0
 10
93.3319
 20
31.8534
 30
0.0
 11
95.5146
 21
33.7757
 31
0.0
  0
LINE
  8
0
 62
     0
 10
95.5146
 20
33.7757
 30
0.0
 11
97.6313
 21
35.6443
 31
0.0
  0
LINE
  8
0
 62
     0
 10
97.6313
 20
35.6443
 30
0.0
 11
98.9542
 21
36.8184
 31
0.0
  0
LINE
  8
0
 62
     0
 10
98.9542
 20
36.8184
 30
0.0
 11
99.4392
 21
37.254
 31
0.0
  0
LINE
  8
0
 62
     0
 10
99.4392
 20
37.254
 30
0.0
 11
99.4833
 21
37.2981
 31
0.0
  0
LINE
  8
0
 62
     0
 10
99.4833
 20
37.2981
 30
0.0
 11
100.013
 21
37.5627
 31
0.0
  0
LINE
  8
0
 62
     0
 10
100.013
 20
37.5627
 30
0.0
 11
86.5188
 21
52.1148
 31
0.0
  0
ENDSEC
  0
EOF
