  0
SECTION
  2
HEADER
  9
$ACADVER
  1
AC1009
  9
$FILLMODE
 70
 0
  9
$SPLFRAME
 70
 1
  9
$EXTMIN
 10
0
 20
0
 30
0.0
  9
$EXTMAX
 10
1058.33
 20
1058.33
 30
0.0
  0
ENDSEC
  0
SECTION
  2
TABLES
  0
TABLE
  2
LAYER
 70
1
  0
LAYER
  2
0
 70
     0
 62
     7
  6
CONTINUOUS
  0
ENDTAB
  0
ENDSEC
  0
SECTION
  2
ENTITIES
  0
LINE
  8
0
 62
     0
 10
193.088
 20
0.771701
 30
0.0
 11
43.561
 21
150.3
 31
0.0
  0
LINE
  8
0
 62
     0
 10
43.561
 20
150.3
 30
0.0
 11
11.8856
 21
118.624
 31
0.0
  0
LINE
  8
0
 62
     0
 10
11.8856
 20
118.624
 30
0.0
 11
0.529167
 21
211.49
 31
0.0
  0
LINE
  8
0
 62
     0
 10
0.529167
 20
211.49
 30
0.0
 11
93.3951
 21
200.133
 31
0.0
  0
LINE
  8
0
 62
     0
 10
93.3951
 20
200.133
 30
0.0
 11
61.7195
 21
168.458
 31
0.0
  0
LINE
  8
0
 62
     0
 10
61.7195
 20
168.458
 30
0.0
 11
211.248
 21
18.9315
 31
0.0
  0
LINE
  8
0
 62
     0
 10
211.248
 20
18.9315
 30
0.0
 11
193.088
 21
0.771701
 31
0.0
  0
ENDSEC
  0
EOF
