  0
SECTION
  2
HEADER
  9
$ACADVER
  1
AC1009
  9
$FILLMODE
 70
 0
  9
$SPLFRAME
 70
 1
  9
$EXTMIN
 10
0
 20
0
 30
0.0
  9
$EXTMAX
 10
1058.33
 20
1058.33
 30
0.0
  0
ENDSEC
  0
SECTION
  2
TABLES
  0
TABLE
  2
LAYER
 70
1
  0
LAYER
  2
0
 70
     0
 62
     7
  6
CONTINUOUS
  0
ENDTAB
  0
ENDSEC
  0
SECTION
  2
ENTITIES
  0
LINE
  8
0
 62
     0
 10
164.961
 20
58.0044
 30
0.0
 11
47.2542
 21
174.851
 31
0.0
  0
LINE
  8
0
 62
     0
 10
47.2542
 20
174.851
 30
0.0
 11
71.5973
 21
199.481
 31
0.0
  0
LINE
  8
0
 62
     0
 10
71.5973
 20
199.481
 30
0.0
 11
0
 21
207.786
 31
0.0
  0
LINE
  8
0
 62
     0
 10
0
 20
207.786
 30
0.0
 11
8.30545
 21
135.902
 31
0.0
  0
LINE
  8
0
 62
     0
 10
8.30545
 20
135.902
 30
0.0
 11
32.3619
 21
160.245
 31
0.0
  0
LINE
  8
0
 62
     0
 10
32.3619
 20
160.245
 30
0.0
 11
195.318
 21
0.152962
 31
0.0
  0
LINE
  8
0
 62
     0
 10
195.318
 20
0.152962
 30
0.0
 11
210.116
 21
13.2581
 31
0.0
  0
LINE
  8
0
 62
     0
 10
210.116
 20
13.2581
 30
0.0
 11
164.961
 21
58.0044
 31
0.0
  0
ENDSEC
  0
EOF
