  0
SECTION
  2
HEADER
  9
$ACADVER
  1
AC1009
  9
$FILLMODE
 70
 0
  9
$SPLFRAME
 70
 1
  9
$EXTMIN
 10
0
 20
0
 30
0.0
  9
$EXTMAX
 10
1058.33
 20
1058.33
 30
0.0
  0
ENDSEC
  0
SECTION
  2
TABLES
  0
TABLE
  2
LAYER
 70
1
  0
LAYER
  2
0
 70
     0
 62
     7
  6
CONTINUOUS
  0
ENDTAB
  0
ENDSEC
  0
SECTION
  2
ENTITIES
  0
LINE
  8
0
 62
     0
 10
26.4583
 20
212.019
 30
0.0
 11
185.208
 21
212.019
 31
0.0
  0
LINE
  8
0
 62
     0
 10
185.208
 20
212.019
 30
0.0
 11
185.208
 21
0.352778
 31
0.0
  0
LINE
  8
0
 62
     0
 10
185.208
 20
0.352778
 30
0.0
 11
26.4583
 21
0.352778
 31
0.0
  0
LINE
  8
0
 62
     0
 10
26.4583
 20
0.352778
 30
0.0
 11
26.4583
 21
212.019
 31
0.0
  0
LINE
  8
0
 62
     0
 10
52.9167
 20
185.561
 30
0.0
 11
158.75
 21
185.561
 31
0.0
  0
LINE
  8
0
 62
     0
 10
158.75
 20
185.561
 30
0.0
 11
158.75
 21
132.644
 31
0.0
  0
LINE
  8
0
 62
     0
 10
158.75
 20
132.644
 30
0.0
 11
52.9167
 21
132.644
 31
0.0
  0
LINE
  8
0
 62
     0
 10
52.9167
 20
132.644
 30
0.0
 11
52.9167
 21
185.561
 31
0.0
  0
LINE
  8
0
 62
     0
 10
66.1458
 20
79.7278
 30
0.0
 11
66.8115
 21
79.7278
 31
0.0
  0
LINE
  8
0
 62
     0
 10
66.8115
 20
79.7278
 30
0.0
 11
68.8111
 21
79.998
 31
0.0
  0
LINE
  8
0
 62
     0
 10
68.8111
 20
79.998
 30
0.0
 11
71.2943
 21
80.7681
 31
0.0
  0
LINE
  8
0
 62
     0
 10
71.2943
 20
80.7681
 30
0.0
 11
73.5418
 21
81.9877
 31
0.0
  0
LINE
  8
0
 62
     0
 10
73.5418
 20
81.9877
 30
0.0
 11
75.5001
 21
83.6027
 31
0.0
  0
LINE
  8
0
 62
     0
 10
75.5001
 20
83.6027
 30
0.0
 11
77.1151
 21
85.561
 31
0.0
  0
LINE
  8
0
 62
     0
 10
77.1151
 20
85.561
 30
0.0
 11
78.3347
 21
87.8085
 31
0.0
  0
LINE
  8
0
 62
     0
 10
78.3347
 20
87.8085
 30
0.0
 11
79.1048
 21
90.2917
 31
0.0
  0
LINE
  8
0
 62
     0
 10
79.1048
 20
90.2917
 30
0.0
 11
79.375
 21
92.2913
 31
0.0
  0
LINE
  8
0
 62
     0
 10
79.375
 20
92.2913
 30
0.0
 11
79.375
 21
92.9569
 31
0.0
  0
LINE
  8
0
 62
     0
 10
79.375
 20
92.9569
 30
0.0
 11
79.375
 21
93.624
 31
0.0
  0
LINE
  8
0
 62
     0
 10
79.375
 20
93.624
 30
0.0
 11
79.1048
 21
95.6236
 31
0.0
  0
LINE
  8
0
 62
     0
 10
79.1048
 20
95.6236
 30
0.0
 11
78.3347
 21
98.1068
 31
0.0
  0
LINE
  8
0
 62
     0
 10
78.3347
 20
98.1068
 30
0.0
 11
77.1151
 21
100.354
 31
0.0
  0
LINE
  8
0
 62
     0
 10
77.1151
 20
100.354
 30
0.0
 11
75.5001
 21
102.313
 31
0.0
  0
LINE
  8
0
 62
     0
 10
75.5001
 20
102.313
 30
0.0
 11
73.5418
 21
103.928
 31
0.0
  0
LINE
  8
0
 62
     0
 10
73.5418
 20
103.928
 30
0.0
 11
71.2943
 21
105.147
 31
0.0
  0
LINE
  8
0
 62
     0
 10
71.2943
 20
105.147
 30
0.0
 11
68.8111
 21
105.917
 31
0.0
  0
LINE
  8
0
 62
     0
 10
68.8111
 20
105.917
 30
0.0
 11
66.8115
 21
106.186
 31
0.0
  0
LINE
  8
0
 62
     0
 10
66.8115
 20
106.186
 30
0.0
 11
66.1458
 21
106.186
 31
0.0
  0
LINE
  8
0
 62
     0
 10
66.1458
 20
106.186
 30
0.0
 11
65.4787
 21
106.186
 31
0.0
  0
LINE
  8
0
 62
     0
 10
65.4787
 20
106.186
 30
0.0
 11
63.4792
 21
105.917
 31
0.0
  0
LINE
  8
0
 62
     0
 10
63.4792
 20
105.917
 30
0.0
 11
60.996
 21
105.147
 31
0.0
  0
LINE
  8
0
 62
     0
 10
60.996
 20
105.147
 30
0.0
 11
58.7484
 21
103.928
 31
0.0
  0
LINE
  8
0
 62
     0
 10
58.7484
 20
103.928
 30
0.0
 11
56.7902
 21
102.313
 31
0.0
  0
LINE
  8
0
 62
     0
 10
56.7902
 20
102.313
 30
0.0
 11
55.1751
 21
100.354
 31
0.0
  0
LINE
  8
0
 62
     0
 10
55.1751
 20
100.354
 30
0.0
 11
53.9556
 21
98.1068
 31
0.0
  0
LINE
  8
0
 62
     0
 10
53.9556
 20
98.1068
 30
0.0
 11
53.1855
 21
95.6236
 31
0.0
  0
LINE
  8
0
 62
     0
 10
53.1855
 20
95.6236
 30
0.0
 11
52.9167
 21
93.624
 31
0.0
  0
LINE
  8
0
 62
     0
 10
52.9167
 20
93.624
 30
0.0
 11
52.9167
 21
92.9569
 31
0.0
  0
LINE
  8
0
 62
     0
 10
52.9167
 20
92.9569
 30
0.0
 11
52.9167
 21
92.2913
 31
0.0
  0
LINE
  8
0
 62
     0
 10
52.9167
 20
92.2913
 30
0.0
 11
53.1855
 21
90.2917
 31
0.0
  0
LINE
  8
0
 62
     0
 10
53.1855
 20
90.2917
 30
0.0
 11
53.9556
 21
87.8085
 31
0.0
  0
LINE
  8
0
 62
     0
 10
53.9556
 20
87.8085
 30
0.0
 11
55.1751
 21
85.561
 31
0.0
  0
LINE
  8
0
 62
     0
 10
55.1751
 20
85.561
 30
0.0
 11
56.7902
 21
83.6027
 31
0.0
  0
LINE
  8
0
 62
     0
 10
56.7902
 20
83.6027
 30
0.0
 11
58.7484
 21
81.9877
 31
0.0
  0
LINE
  8
0
 62
     0
 10
58.7484
 20
81.9877
 30
0.0
 11
60.996
 21
80.7681
 31
0.0
  0
LINE
  8
0
 62
     0
 10
60.996
 20
80.7681
 30
0.0
 11
63.4792
 21
79.998
 31
0.0
  0
LINE
  8
0
 62
     0
 10
63.4792
 20
79.998
 30
0.0
 11
65.4787
 21
79.7278
 31
0.0
  0
LINE
  8
0
 62
     0
 10
65.4787
 20
79.7278
 30
0.0
 11
66.1458
 21
79.7278
 31
0.0
  0
LINE
  8
0
 62
     0
 10
79.375
 20
40.0403
 30
0.0
 11
79.375
 21
39.3746
 31
0.0
  0
LINE
  8
0
 62
     0
 10
79.375
 20
39.3746
 30
0.0
 11
79.1048
 21
37.375
 31
0.0
  0
LINE
  8
0
 62
     0
 10
79.1048
 20
37.375
 30
0.0
 11
78.3347
 21
34.8919
 31
0.0
  0
LINE
  8
0
 62
     0
 10
78.3347
 20
34.8919
 30
0.0
 11
77.1151
 21
32.6444
 31
0.0
  0
LINE
  8
0
 62
     0
 10
77.1151
 20
32.6444
 30
0.0
 11
75.5001
 21
30.6862
 31
0.0
  0
LINE
  8
0
 62
     0
 10
75.5001
 20
30.6862
 30
0.0
 11
73.5418
 21
29.0711
 31
0.0
  0
LINE
  8
0
 62
     0
 10
73.5418
 20
29.0711
 30
0.0
 11
71.2943
 21
27.8515
 31
0.0
  0
LINE
  8
0
 62
     0
 10
71.2943
 20
27.8515
 30
0.0
 11
68.8111
 21
27.0812
 31
0.0
  0
LINE
  8
0
 62
     0
 10
68.8111
 20
27.0812
 30
0.0
 11
66.8115
 21
26.8111
 31
0.0
  0
LINE
  8
0
 62
     0
 10
66.8115
 20
26.8111
 30
0.0
 11
66.1458
 21
26.8111
 31
0.0
  0
LINE
  8
0
 62
     0
 10
66.1458
 20
26.8111
 30
0.0
 11
65.4787
 21
26.8111
 31
0.0
  0
LINE
  8
0
 62
     0
 10
65.4787
 20
26.8111
 30
0.0
 11
63.4792
 21
27.0812
 31
0.0
  0
LINE
  8
0
 62
     0
 10
63.4792
 20
27.0812
 30
0.0
 11
60.996
 21
27.8515
 31
0.0
  0
LINE
  8
0
 62
     0
 10
60.996
 20
27.8515
 30
0.0
 11
58.7484
 21
29.0711
 31
0.0
  0
LINE
  8
0
 62
     0
 10
58.7484
 20
29.0711
 30
0.0
 11
56.7902
 21
30.6862
 31
0.0
  0
LINE
  8
0
 62
     0
 10
56.7902
 20
30.6862
 30
0.0
 11
55.1751
 21
32.6444
 31
0.0
  0
LINE
  8
0
 62
     0
 10
55.1751
 20
32.6444
 30
0.0
 11
53.9556
 21
34.8919
 31
0.0
  0
LINE
  8
0
 62
     0
 10
53.9556
 20
34.8919
 30
0.0
 11
53.1855
 21
37.375
 31
0.0
  0
LINE
  8
0
 62
     0
 10
53.1855
 20
37.375
 30
0.0
 11
52.9167
 21
39.3746
 31
0.0
  0
LINE
  8
0
 62
     0
 10
52.9167
 20
39.3746
 30
0.0
 11
52.9167
 21
40.0403
 31
0.0
  0
LINE
  8
0
 62
     0
 10
52.9167
 20
40.0403
 30
0.0
 11
52.9167
 21
40.7074
 31
0.0
  0
LINE
  8
0
 62
     0
 10
52.9167
 20
40.7074
 30
0.0
 11
53.1855
 21
42.7069
 31
0.0
  0
LINE
  8
0
 62
     0
 10
53.1855
 20
42.7069
 30
0.0
 11
53.9556
 21
45.1901
 31
0.0
  0
LINE
  8
0
 62
     0
 10
53.9556
 20
45.1901
 30
0.0
 11
55.1751
 21
47.4377
 31
0.0
  0
LINE
  8
0
 62
     0
 10
55.1751
 20
47.4377
 30
0.0
 11
56.7902
 21
49.3959
 31
0.0
  0
LINE
  8
0
 62
     0
 10
56.7902
 20
49.3959
 30
0.0
 11
58.7484
 21
51.011
 31
0.0
  0
LINE
  8
0
 62
     0
 10
58.7484
 20
51.011
 30
0.0
 11
60.996
 21
52.2305
 31
0.0
  0
LINE
  8
0
 62
     0
 10
60.996
 20
52.2305
 30
0.0
 11
63.4792
 21
53.0006
 31
0.0
  0
LINE
  8
0
 62
     0
 10
63.4792
 20
53.0006
 30
0.0
 11
65.4787
 21
53.2694
 31
0.0
  0
LINE
  8
0
 62
     0
 10
65.4787
 20
53.2694
 30
0.0
 11
66.1458
 21
53.2694
 31
0.0
  0
LINE
  8
0
 62
     0
 10
66.1458
 20
53.2694
 30
0.0
 11
66.8115
 21
53.2694
 31
0.0
  0
LINE
  8
0
 62
     0
 10
66.8115
 20
53.2694
 30
0.0
 11
68.8111
 21
53.0006
 31
0.0
  0
LINE
  8
0
 62
     0
 10
68.8111
 20
53.0006
 30
0.0
 11
71.2943
 21
52.2305
 31
0.0
  0
LINE
  8
0
 62
     0
 10
71.2943
 20
52.2305
 30
0.0
 11
73.5418
 21
51.011
 31
0.0
  0
LINE
  8
0
 62
     0
 10
73.5418
 20
51.011
 30
0.0
 11
75.5001
 21
49.3959
 31
0.0
  0
LINE
  8
0
 62
     0
 10
75.5001
 20
49.3959
 30
0.0
 11
77.1151
 21
47.4377
 31
0.0
  0
LINE
  8
0
 62
     0
 10
77.1151
 20
47.4377
 30
0.0
 11
78.3347
 21
45.1901
 31
0.0
  0
LINE
  8
0
 62
     0
 10
78.3347
 20
45.1901
 30
0.0
 11
79.1048
 21
42.7069
 31
0.0
  0
LINE
  8
0
 62
     0
 10
79.1048
 20
42.7069
 30
0.0
 11
79.375
 21
40.7074
 31
0.0
  0
LINE
  8
0
 62
     0
 10
79.375
 20
40.7074
 30
0.0
 11
79.375
 21
40.0403
 31
0.0
  0
LINE
  8
0
 62
     0
 10
105.833
 20
79.7278
 30
0.0
 11
106.499
 21
79.7278
 31
0.0
  0
LINE
  8
0
 62
     0
 10
106.499
 20
79.7278
 30
0.0
 11
108.499
 21
79.998
 31
0.0
  0
LINE
  8
0
 62
     0
 10
108.499
 20
79.998
 30
0.0
 11
110.982
 21
80.7681
 31
0.0
  0
LINE
  8
0
 62
     0
 10
110.982
 20
80.7681
 30
0.0
 11
113.229
 21
81.9877
 31
0.0
  0
LINE
  8
0
 62
     0
 10
113.229
 20
81.9877
 30
0.0
 11
115.188
 21
83.6027
 31
0.0
  0
LINE
  8
0
 62
     0
 10
115.188
 20
83.6027
 30
0.0
 11
116.803
 21
85.561
 31
0.0
  0
LINE
  8
0
 62
     0
 10
116.803
 20
85.561
 30
0.0
 11
118.022
 21
87.8085
 31
0.0
  0
LINE
  8
0
 62
     0
 10
118.022
 20
87.8085
 30
0.0
 11
118.792
 21
90.2917
 31
0.0
  0
LINE
  8
0
 62
     0
 10
118.792
 20
90.2917
 30
0.0
 11
119.063
 21
92.2913
 31
0.0
  0
LINE
  8
0
 62
     0
 10
119.063
 20
92.2913
 30
0.0
 11
119.063
 21
92.9569
 31
0.0
  0
LINE
  8
0
 62
     0
 10
119.063
 20
92.9569
 30
0.0
 11
119.063
 21
93.624
 31
0.0
  0
LINE
  8
0
 62
     0
 10
119.063
 20
93.624
 30
0.0
 11
118.792
 21
95.6236
 31
0.0
  0
LINE
  8
0
 62
     0
 10
118.792
 20
95.6236
 30
0.0
 11
118.022
 21
98.1068
 31
0.0
  0
LINE
  8
0
 62
     0
 10
118.022
 20
98.1068
 30
0.0
 11
116.803
 21
100.354
 31
0.0
  0
LINE
  8
0
 62
     0
 10
116.803
 20
100.354
 30
0.0
 11
115.188
 21
102.313
 31
0.0
  0
LINE
  8
0
 62
     0
 10
115.188
 20
102.313
 30
0.0
 11
113.229
 21
103.928
 31
0.0
  0
LINE
  8
0
 62
     0
 10
113.229
 20
103.928
 30
0.0
 11
110.982
 21
105.147
 31
0.0
  0
LINE
  8
0
 62
     0
 10
110.982
 20
105.147
 30
0.0
 11
108.499
 21
105.917
 31
0.0
  0
LINE
  8
0
 62
     0
 10
108.499
 20
105.917
 30
0.0
 11
106.499
 21
106.186
 31
0.0
  0
LINE
  8
0
 62
     0
 10
106.499
 20
106.186
 30
0.0
 11
105.833
 21
106.186
 31
0.0
  0
LINE
  8
0
 62
     0
 10
105.833
 20
106.186
 30
0.0
 11
105.166
 21
106.186
 31
0.0
  0
LINE
  8
0
 62
     0
 10
105.166
 20
106.186
 30
0.0
 11
103.167
 21
105.917
 31
0.0
  0
LINE
  8
0
 62
     0
 10
103.167
 20
105.917
 30
0.0
 11
100.683
 21
105.147
 31
0.0
  0
LINE
  8
0
 62
     0
 10
100.683
 20
105.147
 30
0.0
 11
98.4359
 21
103.928
 31
0.0
  0
LINE
  8
0
 62
     0
 10
98.4359
 20
103.928
 30
0.0
 11
96.4777
 21
102.313
 31
0.0
  0
LINE
  8
0
 62
     0
 10
96.4777
 20
102.313
 30
0.0
 11
94.8627
 21
100.354
 31
0.0
  0
LINE
  8
0
 62
     0
 10
94.8627
 20
100.354
 30
0.0
 11
93.6431
 21
98.1068
 31
0.0
  0
LINE
  8
0
 62
     0
 10
93.6431
 20
98.1068
 30
0.0
 11
92.873
 21
95.6236
 31
0.0
  0
LINE
  8
0
 62
     0
 10
92.873
 20
95.6236
 30
0.0
 11
92.6042
 21
93.624
 31
0.0
  0
LINE
  8
0
 62
     0
 10
92.6042
 20
93.624
 30
0.0
 11
92.6042
 21
92.9569
 31
0.0
  0
LINE
  8
0
 62
     0
 10
92.6042
 20
92.9569
 30
0.0
 11
92.6042
 21
92.2913
 31
0.0
  0
LINE
  8
0
 62
     0
 10
92.6042
 20
92.2913
 30
0.0
 11
92.873
 21
90.2917
 31
0.0
  0
LINE
  8
0
 62
     0
 10
92.873
 20
90.2917
 30
0.0
 11
93.6431
 21
87.8085
 31
0.0
  0
LINE
  8
0
 62
     0
 10
93.6431
 20
87.8085
 30
0.0
 11
94.8627
 21
85.561
 31
0.0
  0
LINE
  8
0
 62
     0
 10
94.8627
 20
85.561
 30
0.0
 11
96.4777
 21
83.6027
 31
0.0
  0
LINE
  8
0
 62
     0
 10
96.4777
 20
83.6027
 30
0.0
 11
98.4359
 21
81.9877
 31
0.0
  0
LINE
  8
0
 62
     0
 10
98.4359
 20
81.9877
 30
0.0
 11
100.683
 21
80.7681
 31
0.0
  0
LINE
  8
0
 62
     0
 10
100.683
 20
80.7681
 30
0.0
 11
103.167
 21
79.998
 31
0.0
  0
LINE
  8
0
 62
     0
 10
103.167
 20
79.998
 30
0.0
 11
105.166
 21
79.7278
 31
0.0
  0
LINE
  8
0
 62
     0
 10
105.166
 20
79.7278
 30
0.0
 11
105.833
 21
79.7278
 31
0.0
  0
LINE
  8
0
 62
     0
 10
158.75
 20
92.9569
 30
0.0
 11
158.75
 21
92.2913
 31
0.0
  0
LINE
  8
0
 62
     0
 10
158.75
 20
92.2913
 30
0.0
 11
158.48
 21
90.2917
 31
0.0
  0
LINE
  8
0
 62
     0
 10
158.48
 20
90.2917
 30
0.0
 11
157.71
 21
87.8085
 31
0.0
  0
LINE
  8
0
 62
     0
 10
157.71
 20
87.8085
 30
0.0
 11
156.49
 21
85.561
 31
0.0
  0
LINE
  8
0
 62
     0
 10
156.49
 20
85.561
 30
0.0
 11
154.875
 21
83.6027
 31
0.0
  0
LINE
  8
0
 62
     0
 10
154.875
 20
83.6027
 30
0.0
 11
152.917
 21
81.9877
 31
0.0
  0
LINE
  8
0
 62
     0
 10
152.917
 20
81.9877
 30
0.0
 11
150.669
 21
80.7681
 31
0.0
  0
LINE
  8
0
 62
     0
 10
150.669
 20
80.7681
 30
0.0
 11
148.186
 21
79.998
 31
0.0
  0
LINE
  8
0
 62
     0
 10
148.186
 20
79.998
 30
0.0
 11
146.187
 21
79.7278
 31
0.0
  0
LINE
  8
0
 62
     0
 10
146.187
 20
79.7278
 30
0.0
 11
145.521
 21
79.7278
 31
0.0
  0
LINE
  8
0
 62
     0
 10
145.521
 20
79.7278
 30
0.0
 11
144.854
 21
79.7278
 31
0.0
  0
LINE
  8
0
 62
     0
 10
144.854
 20
79.7278
 30
0.0
 11
142.854
 21
79.998
 31
0.0
  0
LINE
  8
0
 62
     0
 10
142.854
 20
79.998
 30
0.0
 11
140.371
 21
80.7681
 31
0.0
  0
LINE
  8
0
 62
     0
 10
140.371
 20
80.7681
 30
0.0
 11
138.123
 21
81.9877
 31
0.0
  0
LINE
  8
0
 62
     0
 10
138.123
 20
81.9877
 30
0.0
 11
136.165
 21
83.6027
 31
0.0
  0
LINE
  8
0
 62
     0
 10
136.165
 20
83.6027
 30
0.0
 11
134.55
 21
85.561
 31
0.0
  0
LINE
  8
0
 62
     0
 10
134.55
 20
85.561
 30
0.0
 11
133.331
 21
87.8085
 31
0.0
  0
LINE
  8
0
 62
     0
 10
133.331
 20
87.8085
 30
0.0
 11
132.56
 21
90.2917
 31
0.0
  0
LINE
  8
0
 62
     0
 10
132.56
 20
90.2917
 30
0.0
 11
132.292
 21
92.2913
 31
0.0
  0
LINE
  8
0
 62
     0
 10
132.292
 20
92.2913
 30
0.0
 11
132.292
 21
92.9569
 31
0.0
  0
LINE
  8
0
 62
     0
 10
132.292
 20
92.9569
 30
0.0
 11
132.292
 21
93.624
 31
0.0
  0
LINE
  8
0
 62
     0
 10
132.292
 20
93.624
 30
0.0
 11
132.56
 21
95.6236
 31
0.0
  0
LINE
  8
0
 62
     0
 10
132.56
 20
95.6236
 30
0.0
 11
133.331
 21
98.1068
 31
0.0
  0
LINE
  8
0
 62
     0
 10
133.331
 20
98.1068
 30
0.0
 11
134.55
 21
100.354
 31
0.0
  0
LINE
  8
0
 62
     0
 10
134.55
 20
100.354
 30
0.0
 11
136.165
 21
102.313
 31
0.0
  0
LINE
  8
0
 62
     0
 10
136.165
 20
102.313
 30
0.0
 11
138.123
 21
103.928
 31
0.0
  0
LINE
  8
0
 62
     0
 10
138.123
 20
103.928
 30
0.0
 11
140.371
 21
105.147
 31
0.0
  0
LINE
  8
0
 62
     0
 10
140.371
 20
105.147
 30
0.0
 11
142.854
 21
105.917
 31
0.0
  0
LINE
  8
0
 62
     0
 10
142.854
 20
105.917
 30
0.0
 11
144.854
 21
106.186
 31
0.0
  0
LINE
  8
0
 62
     0
 10
144.854
 20
106.186
 30
0.0
 11
145.521
 21
106.186
 31
0.0
  0
LINE
  8
0
 62
     0
 10
145.521
 20
106.186
 30
0.0
 11
146.187
 21
106.186
 31
0.0
  0
LINE
  8
0
 62
     0
 10
146.187
 20
106.186
 30
0.0
 11
148.186
 21
105.917
 31
0.0
  0
LINE
  8
0
 62
     0
 10
148.186
 20
105.917
 30
0.0
 11
150.669
 21
105.147
 31
0.0
  0
LINE
  8
0
 62
     0
 10
150.669
 20
105.147
 30
0.0
 11
152.917
 21
103.928
 31
0.0
  0
LINE
  8
0
 62
     0
 10
152.917
 20
103.928
 30
0.0
 11
154.875
 21
102.313
 31
0.0
  0
LINE
  8
0
 62
     0
 10
154.875
 20
102.313
 30
0.0
 11
156.49
 21
100.354
 31
0.0
  0
LINE
  8
0
 62
     0
 10
156.49
 20
100.354
 30
0.0
 11
157.71
 21
98.1068
 31
0.0
  0
LINE
  8
0
 62
     0
 10
157.71
 20
98.1068
 30
0.0
 11
158.48
 21
95.6236
 31
0.0
  0
LINE
  8
0
 62
     0
 10
158.48
 20
95.6236
 30
0.0
 11
158.75
 21
93.624
 31
0.0
  0
LINE
  8
0
 62
     0
 10
158.75
 20
93.624
 30
0.0
 11
158.75
 21
92.9569
 31
0.0
  0
LINE
  8
0
 62
     0
 10
105.833
 20
53.2694
 30
0.0
 11
105.166
 21
53.2694
 31
0.0
  0
LINE
  8
0
 62
     0
 10
105.166
 20
53.2694
 30
0.0
 11
103.167
 21
53.0006
 31
0.0
  0
LINE
  8
0
 62
     0
 10
103.167
 20
53.0006
 30
0.0
 11
100.683
 21
52.2305
 31
0.0
  0
LINE
  8
0
 62
     0
 10
100.683
 20
52.2305
 30
0.0
 11
98.4359
 21
51.011
 31
0.0
  0
LINE
  8
0
 62
     0
 10
98.4359
 20
51.011
 30
0.0
 11
96.4777
 21
49.3959
 31
0.0
  0
LINE
  8
0
 62
     0
 10
96.4777
 20
49.3959
 30
0.0
 11
94.8627
 21
47.4377
 31
0.0
  0
LINE
  8
0
 62
     0
 10
94.8627
 20
47.4377
 30
0.0
 11
93.6431
 21
45.1901
 31
0.0
  0
LINE
  8
0
 62
     0
 10
93.6431
 20
45.1901
 30
0.0
 11
92.873
 21
42.7069
 31
0.0
  0
LINE
  8
0
 62
     0
 10
92.873
 20
42.7069
 30
0.0
 11
92.6042
 21
40.7074
 31
0.0
  0
LINE
  8
0
 62
     0
 10
92.6042
 20
40.7074
 30
0.0
 11
92.6042
 21
40.0403
 31
0.0
  0
LINE
  8
0
 62
     0
 10
92.6042
 20
40.0403
 30
0.0
 11
92.6042
 21
39.3746
 31
0.0
  0
LINE
  8
0
 62
     0
 10
92.6042
 20
39.3746
 30
0.0
 11
92.873
 21
37.375
 31
0.0
  0
LINE
  8
0
 62
     0
 10
92.873
 20
37.375
 30
0.0
 11
93.6431
 21
34.8919
 31
0.0
  0
LINE
  8
0
 62
     0
 10
93.6431
 20
34.8919
 30
0.0
 11
94.8627
 21
32.6444
 31
0.0
  0
LINE
  8
0
 62
     0
 10
94.8627
 20
32.6444
 30
0.0
 11
96.4777
 21
30.6862
 31
0.0
  0
LINE
  8
0
 62
     0
 10
96.4777
 20
30.6862
 30
0.0
 11
98.4359
 21
29.0711
 31
0.0
  0
LINE
  8
0
 62
     0
 10
98.4359
 20
29.0711
 30
0.0
 11
100.683
 21
27.8515
 31
0.0
  0
LINE
  8
0
 62
     0
 10
100.683
 20
27.8515
 30
0.0
 11
103.167
 21
27.0812
 31
0.0
  0
LINE
  8
0
 62
     0
 10
103.167
 20
27.0812
 30
0.0
 11
105.166
 21
26.8111
 31
0.0
  0
LINE
  8
0
 62
     0
 10
105.166
 20
26.8111
 30
0.0
 11
105.833
 21
26.8111
 31
0.0
  0
LINE
  8
0
 62
     0
 10
105.833
 20
26.8111
 30
0.0
 11
145.521
 21
26.8111
 31
0.0
  0
LINE
  8
0
 62
     0
 10
145.521
 20
26.8111
 30
0.0
 11
146.187
 21
26.8111
 31
0.0
  0
LINE
  8
0
 62
     0
 10
146.187
 20
26.8111
 30
0.0
 11
148.186
 21
27.0812
 31
0.0
  0
LINE
  8
0
 62
     0
 10
148.186
 20
27.0812
 30
0.0
 11
150.669
 21
27.8515
 31
0.0
  0
LINE
  8
0
 62
     0
 10
150.669
 20
27.8515
 30
0.0
 11
152.917
 21
29.0711
 31
0.0
  0
LINE
  8
0
 62
     0
 10
152.917
 20
29.0711
 30
0.0
 11
154.875
 21
30.6862
 31
0.0
  0
LINE
  8
0
 62
     0
 10
154.875
 20
30.6862
 30
0.0
 11
156.49
 21
32.6444
 31
0.0
  0
LINE
  8
0
 62
     0
 10
156.49
 20
32.6444
 30
0.0
 11
157.71
 21
34.8919
 31
0.0
  0
LINE
  8
0
 62
     0
 10
157.71
 20
34.8919
 30
0.0
 11
158.48
 21
37.375
 31
0.0
  0
LINE
  8
0
 62
     0
 10
158.48
 20
37.375
 30
0.0
 11
158.75
 21
39.3746
 31
0.0
  0
LINE
  8
0
 62
     0
 10
158.75
 20
39.3746
 30
0.0
 11
158.75
 21
40.0403
 31
0.0
  0
LINE
  8
0
 62
     0
 10
158.75
 20
40.0403
 30
0.0
 11
158.75
 21
40.7074
 31
0.0
  0
LINE
  8
0
 62
     0
 10
158.75
 20
40.7074
 30
0.0
 11
158.48
 21
42.7069
 31
0.0
  0
LINE
  8
0
 62
     0
 10
158.48
 20
42.7069
 30
0.0
 11
157.71
 21
45.1901
 31
0.0
  0
LINE
  8
0
 62
     0
 10
157.71
 20
45.1901
 30
0.0
 11
156.49
 21
47.4377
 31
0.0
  0
LINE
  8
0
 62
     0
 10
156.49
 20
47.4377
 30
0.0
 11
154.875
 21
49.3959
 31
0.0
  0
LINE
  8
0
 62
     0
 10
154.875
 20
49.3959
 30
0.0
 11
152.917
 21
51.011
 31
0.0
  0
LINE
  8
0
 62
     0
 10
152.917
 20
51.011
 30
0.0
 11
150.669
 21
52.2305
 31
0.0
  0
LINE
  8
0
 62
     0
 10
150.669
 20
52.2305
 30
0.0
 11
148.186
 21
53.0006
 31
0.0
  0
LINE
  8
0
 62
     0
 10
148.186
 20
53.0006
 30
0.0
 11
146.187
 21
53.2694
 31
0.0
  0
LINE
  8
0
 62
     0
 10
146.187
 20
53.2694
 30
0.0
 11
145.521
 21
53.2694
 31
0.0
  0
LINE
  8
0
 62
     0
 10
145.521
 20
53.2694
 30
0.0
 11
105.833
 21
53.2694
 31
0.0
  0
ENDSEC
  0
EOF
