  0
SECTION
  2
HEADER
  9
$ACADVER
  1
AC1009
  9
$FILLMODE
 70
 0
  9
$SPLFRAME
 70
 1
  9
$EXTMIN
 10
0
 20
0
 30
0.0
  9
$EXTMAX
 10
1058.33
 20
1058.33
 30
0.0
  0
ENDSEC
  0
SECTION
  2
TABLES
  0
TABLE
  2
LAYER
 70
1
  0
LAYER
  2
0
 70
     0
 62
     7
  6
CONTINUOUS
  0
ENDTAB
  0
ENDSEC
  0
SECTION
  2
ENTITIES
  0
LINE
  8
0
 62
     0
 10
105.833
 20
182.033
 30
0.0
 11
172.861
 21
115.006
 31
0.0
  0
LINE
  8
0
 62
     0
 10
172.861
 20
115.006
 30
0.0
 11
145.521
 21
115.006
 31
0.0
  0
LINE
  8
0
 62
     0
 10
145.521
 20
115.006
 30
0.0
 11
145.521
 21
88.5472
 31
0.0
  0
LINE
  8
0
 62
     0
 10
145.521
 20
88.5472
 30
0.0
 11
66.1458
 21
88.5472
 31
0.0
  0
LINE
  8
0
 62
     0
 10
66.1458
 20
88.5472
 30
0.0
 11
66.1458
 21
115.006
 31
0.0
  0
LINE
  8
0
 62
     0
 10
66.1458
 20
115.006
 30
0.0
 11
38.8056
 21
115.006
 31
0.0
  0
LINE
  8
0
 62
     0
 10
38.8056
 20
115.006
 30
0.0
 11
105.833
 21
182.033
 31
0.0
  0
LINE
  8
0
 62
     0
 10
105.833
 20
203.2
 30
0.0
 11
105.252
 21
203.192
 31
0.0
  0
LINE
  8
0
 62
     0
 10
105.252
 20
203.192
 30
0.0
 11
102.485
 21
202.489
 31
0.0
  0
LINE
  8
0
 62
     0
 10
102.485
 20
202.489
 30
0.0
 11
100.066
 21
200.97
 31
0.0
  0
LINE
  8
0
 62
     0
 10
100.066
 20
200.97
 30
0.0
 11
99.6597
 21
200.554
 31
0.0
  0
LINE
  8
0
 62
     0
 10
99.6597
 20
200.554
 30
0.0
 11
11.4653
 21
112.36
 31
0.0
  0
LINE
  8
0
 62
     0
 10
11.4653
 20
112.36
 30
0.0
 11
11.0161
 21
111.904
 31
0.0
  0
LINE
  8
0
 62
     0
 10
11.0161
 20
111.904
 30
0.0
 11
9.94255
 21
110.266
 31
0.0
  0
LINE
  8
0
 62
     0
 10
9.94255
 20
110.266
 30
0.0
 11
9.10608
 21
107.873
 31
0.0
  0
LINE
  8
0
 62
     0
 10
9.10608
 20
107.873
 30
0.0
 11
8.98342
 21
105.34
 31
0.0
  0
LINE
  8
0
 62
     0
 10
8.98342
 20
105.34
 30
0.0
 11
9.36378
 21
103.42
 31
0.0
  0
LINE
  8
0
 62
     0
 10
9.36378
 20
103.42
 30
0.0
 11
9.60769
 21
102.828
 31
0.0
  0
LINE
  8
0
 62
     0
 10
9.60769
 20
102.828
 30
0.0
 11
9.85023
 21
102.237
 31
0.0
  0
LINE
  8
0
 62
     0
 10
9.85023
 20
102.237
 30
0.0
 11
10.932
 21
100.605
 31
0.0
  0
LINE
  8
0
 62
     0
 10
10.932
 20
100.605
 30
0.0
 11
12.8034
 21
98.8921
 31
0.0
  0
LINE
  8
0
 62
     0
 10
12.8034
 20
98.8921
 30
0.0
 11
15.084
 21
97.7829
 31
0.0
  0
LINE
  8
0
 62
     0
 10
15.084
 20
97.7829
 30
0.0
 11
16.9981
 21
97.3762
 31
0.0
  0
LINE
  8
0
 62
     0
 10
16.9981
 20
97.3762
 30
0.0
 11
17.6389
 21
97.3667
 31
0.0
  0
LINE
  8
0
 62
     0
 10
17.6389
 20
97.3667
 30
0.0
 11
48.5069
 21
97.3667
 31
0.0
  0
LINE
  8
0
 62
     0
 10
48.5069
 20
97.3667
 30
0.0
 11
48.5069
 21
79.7278
 31
0.0
  0
LINE
  8
0
 62
     0
 10
48.5069
 20
79.7278
 30
0.0
 11
48.5069
 21
79.284
 31
0.0
  0
LINE
  8
0
 62
     0
 10
48.5069
 20
79.284
 30
0.0
 11
48.6862
 21
77.9515
 31
0.0
  0
LINE
  8
0
 62
     0
 10
48.6862
 20
77.9515
 30
0.0
 11
49.1987
 21
76.2953
 31
0.0
  0
LINE
  8
0
 62
     0
 10
49.1987
 20
76.2953
 30
0.0
 11
50.0119
 21
74.797
 31
0.0
  0
LINE
  8
0
 62
     0
 10
50.0119
 20
74.797
 30
0.0
 11
51.0893
 21
73.4921
 31
0.0
  0
LINE
  8
0
 62
     0
 10
51.0893
 20
73.4921
 30
0.0
 11
52.3946
 21
72.4147
 31
0.0
  0
LINE
  8
0
 62
     0
 10
52.3946
 20
72.4147
 30
0.0
 11
53.8925
 21
71.6015
 31
0.0
  0
LINE
  8
0
 62
     0
 10
53.8925
 20
71.6015
 30
0.0
 11
55.5487
 21
71.089
 31
0.0
  0
LINE
  8
0
 62
     0
 10
55.5487
 20
71.089
 30
0.0
 11
56.8812
 21
70.9083
 31
0.0
  0
LINE
  8
0
 62
     0
 10
56.8812
 20
70.9083
 30
0.0
 11
57.3264
 21
70.9083
 31
0.0
  0
LINE
  8
0
 62
     0
 10
57.3264
 20
70.9083
 30
0.0
 11
154.34
 21
70.9083
 31
0.0
  0
LINE
  8
0
 62
     0
 10
154.34
 20
70.9083
 30
0.0
 11
154.784
 21
70.9083
 31
0.0
  0
LINE
  8
0
 62
     0
 10
154.784
 20
70.9083
 30
0.0
 11
156.117
 21
71.089
 31
0.0
  0
LINE
  8
0
 62
     0
 10
156.117
 20
71.089
 30
0.0
 11
157.773
 21
71.6015
 31
0.0
  0
LINE
  8
0
 62
     0
 10
157.773
 20
71.6015
 30
0.0
 11
159.271
 21
72.4147
 31
0.0
  0
LINE
  8
0
 62
     0
 10
159.271
 20
72.4147
 30
0.0
 11
160.576
 21
73.4921
 31
0.0
  0
LINE
  8
0
 62
     0
 10
160.576
 20
73.4921
 30
0.0
 11
161.653
 21
74.797
 31
0.0
  0
LINE
  8
0
 62
     0
 10
161.653
 20
74.797
 30
0.0
 11
162.467
 21
76.2953
 31
0.0
  0
LINE
  8
0
 62
     0
 10
162.467
 20
76.2953
 30
0.0
 11
162.979
 21
77.9515
 31
0.0
  0
LINE
  8
0
 62
     0
 10
162.979
 20
77.9515
 30
0.0
 11
163.16
 21
79.284
 31
0.0
  0
LINE
  8
0
 62
     0
 10
163.16
 20
79.284
 30
0.0
 11
163.16
 21
79.7278
 31
0.0
  0
LINE
  8
0
 62
     0
 10
163.16
 20
79.7278
 30
0.0
 11
163.16
 21
97.3667
 31
0.0
  0
LINE
  8
0
 62
     0
 10
163.16
 20
97.3667
 30
0.0
 11
194.028
 21
97.3667
 31
0.0
  0
LINE
  8
0
 62
     0
 10
194.028
 20
97.3667
 30
0.0
 11
194.667
 21
97.3762
 31
0.0
  0
LINE
  8
0
 62
     0
 10
194.667
 20
97.3762
 30
0.0
 11
196.581
 21
97.7829
 31
0.0
  0
LINE
  8
0
 62
     0
 10
196.581
 20
97.7829
 30
0.0
 11
198.862
 21
98.8921
 31
0.0
  0
LINE
  8
0
 62
     0
 10
198.862
 20
98.8921
 30
0.0
 11
200.733
 21
100.605
 31
0.0
  0
LINE
  8
0
 62
     0
 10
200.733
 20
100.605
 30
0.0
 11
201.815
 21
102.237
 31
0.0
  0
LINE
  8
0
 62
     0
 10
201.815
 20
102.237
 30
0.0
 11
202.059
 21
102.828
 31
0.0
  0
LINE
  8
0
 62
     0
 10
202.059
 20
102.828
 30
0.0
 11
202.301
 21
103.42
 31
0.0
  0
LINE
  8
0
 62
     0
 10
202.301
 20
103.42
 30
0.0
 11
202.682
 21
105.34
 31
0.0
  0
LINE
  8
0
 62
     0
 10
202.682
 20
105.34
 30
0.0
 11
202.561
 21
107.873
 31
0.0
  0
LINE
  8
0
 62
     0
 10
202.561
 20
107.873
 30
0.0
 11
201.723
 21
110.266
 31
0.0
  0
LINE
  8
0
 62
     0
 10
201.723
 20
110.266
 30
0.0
 11
200.649
 21
111.904
 31
0.0
  0
LINE
  8
0
 62
     0
 10
200.649
 20
111.904
 30
0.0
 11
200.201
 21
112.36
 31
0.0
  0
LINE
  8
0
 62
     0
 10
200.201
 20
112.36
 30
0.0
 11
112.007
 21
200.554
 31
0.0
  0
LINE
  8
0
 62
     0
 10
112.007
 20
200.554
 30
0.0
 11
111.599
 21
200.97
 31
0.0
  0
LINE
  8
0
 62
     0
 10
111.599
 20
200.97
 30
0.0
 11
109.18
 21
202.489
 31
0.0
  0
LINE
  8
0
 62
     0
 10
109.18
 20
202.489
 30
0.0
 11
106.415
 21
203.192
 31
0.0
  0
LINE
  8
0
 62
     0
 10
106.415
 20
203.192
 30
0.0
 11
105.833
 21
203.2
 31
0.0
  0
LINE
  8
0
 62
     0
 10
145.521
 20
35.6306
 30
0.0
 11
145.521
 21
26.8111
 31
0.0
  0
LINE
  8
0
 62
     0
 10
145.521
 20
26.8111
 30
0.0
 11
66.1458
 21
26.8111
 31
0.0
  0
LINE
  8
0
 62
     0
 10
66.1458
 20
26.8111
 30
0.0
 11
66.1458
 21
35.6306
 31
0.0
  0
LINE
  8
0
 62
     0
 10
66.1458
 20
35.6306
 30
0.0
 11
145.521
 21
35.6306
 31
0.0
  0
LINE
  8
0
 62
     0
 10
154.34
 20
53.2694
 30
0.0
 11
57.3264
 21
53.2694
 31
0.0
  0
LINE
  8
0
 62
     0
 10
57.3264
 20
53.2694
 30
0.0
 11
56.8812
 21
53.2694
 31
0.0
  0
LINE
  8
0
 62
     0
 10
56.8812
 20
53.2694
 30
0.0
 11
55.5487
 21
53.0902
 31
0.0
  0
LINE
  8
0
 62
     0
 10
55.5487
 20
53.0902
 30
0.0
 11
53.8925
 21
52.5776
 31
0.0
  0
LINE
  8
0
 62
     0
 10
53.8925
 20
52.5776
 30
0.0
 11
52.3946
 21
51.7645
 31
0.0
  0
LINE
  8
0
 62
     0
 10
52.3946
 20
51.7645
 30
0.0
 11
51.0893
 21
50.6871
 31
0.0
  0
LINE
  8
0
 62
     0
 10
51.0893
 20
50.6871
 30
0.0
 11
50.0119
 21
49.3818
 31
0.0
  0
LINE
  8
0
 62
     0
 10
50.0119
 20
49.3818
 30
0.0
 11
49.1987
 21
47.8839
 31
0.0
  0
LINE
  8
0
 62
     0
 10
49.1987
 20
47.8839
 30
0.0
 11
48.6862
 21
46.2276
 31
0.0
  0
LINE
  8
0
 62
     0
 10
48.6862
 20
46.2276
 30
0.0
 11
48.5069
 21
44.8952
 31
0.0
  0
LINE
  8
0
 62
     0
 10
48.5069
 20
44.8952
 30
0.0
 11
48.5069
 21
44.45
 31
0.0
  0
LINE
  8
0
 62
     0
 10
48.5069
 20
44.45
 30
0.0
 11
48.5069
 21
17.9917
 31
0.0
  0
LINE
  8
0
 62
     0
 10
48.5069
 20
17.9917
 30
0.0
 11
48.5069
 21
17.5479
 31
0.0
  0
LINE
  8
0
 62
     0
 10
48.5069
 20
17.5479
 30
0.0
 11
48.6862
 21
16.2154
 31
0.0
  0
LINE
  8
0
 62
     0
 10
48.6862
 20
16.2154
 30
0.0
 11
49.1987
 21
14.559
 31
0.0
  0
LINE
  8
0
 62
     0
 10
49.1987
 20
14.559
 30
0.0
 11
50.0119
 21
13.061
 31
0.0
  0
LINE
  8
0
 62
     0
 10
50.0119
 20
13.061
 30
0.0
 11
51.0893
 21
11.756
 31
0.0
  0
LINE
  8
0
 62
     0
 10
51.0893
 20
11.756
 30
0.0
 11
52.3946
 21
10.6784
 31
0.0
  0
LINE
  8
0
 62
     0
 10
52.3946
 20
10.6784
 30
0.0
 11
53.8925
 21
9.86536
 31
0.0
  0
LINE
  8
0
 62
     0
 10
53.8925
 20
9.86536
 30
0.0
 11
55.5487
 21
9.35274
 31
0.0
  0
LINE
  8
0
 62
     0
 10
55.5487
 20
9.35274
 30
0.0
 11
56.8812
 21
9.17222
 31
0.0
  0
LINE
  8
0
 62
     0
 10
56.8812
 20
9.17222
 30
0.0
 11
57.3264
 21
9.17222
 31
0.0
  0
LINE
  8
0
 62
     0
 10
57.3264
 20
9.17222
 30
0.0
 11
154.34
 21
9.17222
 31
0.0
  0
LINE
  8
0
 62
     0
 10
154.34
 20
9.17222
 30
0.0
 11
154.784
 21
9.17222
 31
0.0
  0
LINE
  8
0
 62
     0
 10
154.784
 20
9.17222
 30
0.0
 11
156.117
 21
9.35274
 31
0.0
  0
LINE
  8
0
 62
     0
 10
156.117
 20
9.35274
 30
0.0
 11
157.773
 21
9.86536
 31
0.0
  0
LINE
  8
0
 62
     0
 10
157.773
 20
9.86536
 30
0.0
 11
159.271
 21
10.6784
 31
0.0
  0
LINE
  8
0
 62
     0
 10
159.271
 20
10.6784
 30
0.0
 11
160.576
 21
11.756
 31
0.0
  0
LINE
  8
0
 62
     0
 10
160.576
 20
11.756
 30
0.0
 11
161.653
 21
13.061
 31
0.0
  0
LINE
  8
0
 62
     0
 10
161.653
 20
13.061
 30
0.0
 11
162.467
 21
14.559
 31
0.0
  0
LINE
  8
0
 62
     0
 10
162.467
 20
14.559
 30
0.0
 11
162.979
 21
16.2154
 31
0.0
  0
LINE
  8
0
 62
     0
 10
162.979
 20
16.2154
 30
0.0
 11
163.16
 21
17.5479
 31
0.0
  0
LINE
  8
0
 62
     0
 10
163.16
 20
17.5479
 30
0.0
 11
163.16
 21
17.9917
 31
0.0
  0
LINE
  8
0
 62
     0
 10
163.16
 20
17.9917
 30
0.0
 11
163.16
 21
44.45
 31
0.0
  0
LINE
  8
0
 62
     0
 10
163.16
 20
44.45
 30
0.0
 11
163.16
 21
44.8952
 31
0.0
  0
LINE
  8
0
 62
     0
 10
163.16
 20
44.8952
 30
0.0
 11
162.979
 21
46.2276
 31
0.0
  0
LINE
  8
0
 62
     0
 10
162.979
 20
46.2276
 30
0.0
 11
162.467
 21
47.8839
 31
0.0
  0
LINE
  8
0
 62
     0
 10
162.467
 20
47.8839
 30
0.0
 11
161.653
 21
49.3818
 31
0.0
  0
LINE
  8
0
 62
     0
 10
161.653
 20
49.3818
 30
0.0
 11
160.576
 21
50.6871
 31
0.0
  0
LINE
  8
0
 62
     0
 10
160.576
 20
50.6871
 30
0.0
 11
159.271
 21
51.7645
 31
0.0
  0
LINE
  8
0
 62
     0
 10
159.271
 20
51.7645
 30
0.0
 11
157.773
 21
52.5776
 31
0.0
  0
LINE
  8
0
 62
     0
 10
157.773
 20
52.5776
 30
0.0
 11
156.117
 21
53.0902
 31
0.0
  0
LINE
  8
0
 62
     0
 10
156.117
 20
53.0902
 30
0.0
 11
154.784
 21
53.2694
 31
0.0
  0
LINE
  8
0
 62
     0
 10
154.784
 20
53.2694
 30
0.0
 11
154.34
 21
53.2694
 31
0.0
  0
ENDSEC
  0
EOF
