  0
SECTION
  2
HEADER
  9
$ACADVER
  1
AC1009
  9
$FILLMODE
 70
 0
  9
$SPLFRAME
 70
 1
  9
$EXTMIN
 10
0
 20
0
 30
0.0
  9
$EXTMAX
 10
1058.33
 20
1058.33
 30
0.0
  0
ENDSEC
  0
SECTION
  2
TABLES
  0
TABLE
  2
LAYER
 70
1
  0
LAYER
  2
0
 70
     0
 62
     7
  6
CONTINUOUS
  0
ENDTAB
  0
ENDSEC
  0
SECTION
  2
ENTITIES
  0
LINE
  8
0
 62
     8
 10
0
 20
92.9569
 30
0.0
 11
92.6042
 21
40.0403
 31
0.0
  0
LINE
  8
0
 62
     8
 10
92.6042
 20
40.0403
 30
0.0
 11
92.6042
 21
79.7278
 31
0.0
  0
LINE
  8
0
 62
     8
 10
92.6042
 20
79.7278
 30
0.0
 11
211.667
 21
79.7278
 31
0.0
  0
LINE
  8
0
 62
     8
 10
211.667
 20
79.7278
 30
0.0
 11
211.667
 21
172.332
 31
0.0
  0
LINE
  8
0
 62
     8
 10
211.667
 20
172.332
 30
0.0
 11
171.979
 21
145.874
 31
0.0
  0
LINE
  8
0
 62
     8
 10
171.979
 20
145.874
 30
0.0
 11
171.979
 21
119.415
 31
0.0
  0
LINE
  8
0
 62
     8
 10
171.979
 20
119.415
 30
0.0
 11
92.6042
 21
119.415
 31
0.0
  0
LINE
  8
0
 62
     8
 10
92.6042
 20
119.415
 30
0.0
 11
92.6042
 21
159.103
 31
0.0
  0
LINE
  8
0
 62
     8
 10
92.6042
 20
159.103
 30
0.0
 11
0
 21
92.9569
 31
0.0
  0
ENDSEC
  0
EOF
