  0
SECTION
  2
HEADER
  9
$ACADVER
  1
AC1009
  9
$FILLMODE
 70
 0
  9
$SPLFRAME
 70
 1
  9
$EXTMIN
 10
0
 20
0
 30
0.0
  9
$EXTMAX
 10
1058.33
 20
1058.33
 30
0.0
  0
ENDSEC
  0
SECTION
  2
TABLES
  0
TABLE
  2
LAYER
 70
1
  0
LAYER
  2
0
 70
     0
 62
     7
  6
CONTINUOUS
  0
ENDTAB
  0
ENDSEC
  0
SECTION
  2
ENTITIES
  0
LINE
  8
0
 62
     0
 10
8.82495
 20
0.235645
 30
0.0
 11
167.575
 21
0.235645
 31
0.0
  0
LINE
  8
0
 62
     0
 10
167.575
 20
0.235645
 30
0.0
 11
168.17
 21
0.238401
 31
0.0
  0
LINE
  8
0
 62
     0
 10
168.17
 20
0.238401
 30
0.0
 11
169.96
 21
0.571885
 31
0.0
  0
LINE
  8
0
 62
     0
 10
169.96
 20
0.571885
 30
0.0
 11
172.131
 21
1.5186
 31
0.0
  0
LINE
  8
0
 62
     0
 10
172.131
 20
1.5186
 30
0.0
 11
173.972
 21
3.00688
 31
0.0
  0
LINE
  8
0
 62
     0
 10
173.972
 20
3.00688
 30
0.0
 11
175.095
 21
4.44003
 31
0.0
  0
LINE
  8
0
 62
     0
 10
175.095
 20
4.44003
 30
0.0
 11
175.373
 21
4.96782
 31
0.0
  0
LINE
  8
0
 62
     0
 10
175.373
 20
4.96782
 30
0.0
 11
175.65
 21
5.49698
 31
0.0
  0
LINE
  8
0
 62
     0
 10
175.65
 20
5.49698
 30
0.0
 11
176.191
 21
7.2347
 31
0.0
  0
LINE
  8
0
 62
     0
 10
176.191
 20
7.2347
 30
0.0
 11
176.368
 21
9.59665
 31
0.0
  0
LINE
  8
0
 62
     0
 10
176.368
 20
9.59665
 30
0.0
 11
175.912
 21
11.92
 31
0.0
  0
LINE
  8
0
 62
     0
 10
175.912
 20
11.92
 30
0.0
 11
175.169
 21
13.5833
 31
0.0
  0
LINE
  8
0
 62
     0
 10
175.169
 20
13.5833
 30
0.0
 11
174.833
 21
14.0739
 31
0.0
  0
LINE
  8
0
 62
     0
 10
174.833
 20
14.0739
 30
0.0
 11
95.4581
 21
128.727
 31
0.0
  0
LINE
  8
0
 62
     0
 10
95.4581
 20
128.727
 30
0.0
 11
95.159
 21
129.158
 31
0.0
  0
LINE
  8
0
 62
     0
 10
95.159
 20
129.158
 30
0.0
 11
94.0248
 21
130.286
 31
0.0
  0
LINE
  8
0
 62
     0
 10
94.0248
 20
130.286
 30
0.0
 11
92.2666
 21
131.402
 31
0.0
  0
LINE
  8
0
 62
     0
 10
92.2666
 20
131.402
 30
0.0
 11
90.2903
 21
132.07
 31
0.0
  0
LINE
  8
0
 62
     0
 10
90.2903
 20
132.07
 30
0.0
 11
88.2068
 21
132.292
 31
0.0
  0
LINE
  8
0
 62
     0
 10
88.2068
 20
132.292
 30
0.0
 11
86.1219
 21
132.07
 31
0.0
  0
LINE
  8
0
 62
     0
 10
86.1219
 20
132.07
 30
0.0
 11
84.1446
 21
131.402
 31
0.0
  0
LINE
  8
0
 62
     0
 10
84.1446
 20
131.402
 30
0.0
 11
82.3845
 21
130.286
 31
0.0
  0
LINE
  8
0
 62
     0
 10
82.3845
 20
130.286
 30
0.0
 11
81.2493
 21
129.158
 31
0.0
  0
LINE
  8
0
 62
     0
 10
81.2493
 20
129.158
 30
0.0
 11
80.9502
 21
128.727
 31
0.0
  0
LINE
  8
0
 62
     0
 10
80.9502
 20
128.727
 30
0.0
 11
1.5751
 21
14.0739
 31
0.0
  0
LINE
  8
0
 62
     0
 10
1.5751
 20
14.0739
 30
0.0
 11
1.23334
 21
13.5833
 31
0.0
  0
LINE
  8
0
 62
     0
 10
1.23334
 20
13.5833
 30
0.0
 11
0.480935
 21
11.9214
 31
0.0
  0
LINE
  8
0
 62
     0
 10
0.480935
 20
11.9214
 30
0.0
 11
0.0165365
 21
9.59527
 31
0.0
  0
LINE
  8
0
 62
     0
 10
0.0165365
 20
9.59527
 30
0.0
 11
0.188791
 21
7.23057
 31
0.0
  0
LINE
  8
0
 62
     0
 10
0.188791
 20
7.23057
 30
0.0
 11
0.727604
 21
5.48873
 31
0.0
  0
LINE
  8
0
 62
     0
 10
0.727604
 20
5.48873
 30
0.0
 11
1.00597
 21
4.95819
 31
0.0
  0
LINE
  8
0
 62
     0
 10
1.00597
 20
4.95819
 30
0.0
 11
1.28295
 21
4.42902
 31
0.0
  0
LINE
  8
0
 62
     0
 10
1.28295
 20
4.42902
 30
0.0
 11
2.40743
 21
2.9931
 31
0.0
  0
LINE
  8
0
 62
     0
 10
2.40743
 20
2.9931
 30
0.0
 11
4.25538
 21
1.50482
 31
0.0
  0
LINE
  8
0
 62
     0
 10
4.25538
 20
1.50482
 30
0.0
 11
6.43132
 21
0.563619
 31
0.0
  0
LINE
  8
0
 62
     0
 10
6.43132
 20
0.563619
 30
0.0
 11
8.22688
 21
0.235645
 31
0.0
  0
LINE
  8
0
 62
     0
 10
8.22688
 20
0.235645
 30
0.0
 11
8.82495
 21
0.235645
 31
0.0
  0
ENDSEC
  0
EOF
