  0
SECTION
  2
HEADER
  9
$ACADVER
  1
AC1009
  9
$FILLMODE
 70
 0
  9
$SPLFRAME
 70
 1
  9
$EXTMIN
 10
0
 20
0
 30
0.0
  9
$EXTMAX
 10
1058.33
 20
1058.33
 30
0.0
  0
ENDSEC
  0
SECTION
  2
TABLES
  0
TABLE
  2
LAYER
 70
1
  0
LAYER
  2
0
 70
     0
 62
     7
  6
CONTINUOUS
  0
ENDTAB
  0
ENDSEC
  0
SECTION
  2
ENTITIES
  0
LINE
  8
0
 62
     0
 10
69.2079
 20
0.163987
 30
0.0
 11
43.5913
 21
0.2949
 31
0.0
  0
LINE
  8
0
 62
     0
 10
43.5913
 20
0.2949
 30
0.0
 11
44.6828
 21
212.287
 31
0.0
  0
LINE
  8
0
 62
     0
 10
44.6828
 20
212.287
 30
0.0
 11
0
 21
212.517
 31
0.0
  0
LINE
  8
0
 62
     0
 10
0
 20
212.517
 30
0.0
 11
57.8707
 21
286.103
 31
0.0
  0
LINE
  8
0
 62
     0
 10
57.8707
 20
286.103
 30
0.0
 11
114.981
 21
211.927
 31
0.0
  0
LINE
  8
0
 62
     0
 10
114.981
 20
211.927
 30
0.0
 11
70.298
 21
212.156
 31
0.0
  0
LINE
  8
0
 62
     0
 10
70.298
 20
212.156
 30
0.0
 11
69.2079
 21
0.163987
 31
0.0
  0
LINE
  8
0
 62
     0
 10
0
 20
188.771
 30
0.0
 11
114.981
 21
188.771
 31
0.0
  0
LINE
  8
0
 62
     0
 10
114.981
 20
188.771
 30
0.0
 11
114.981
 21
170.331
 31
0.0
  0
LINE
  8
0
 62
     0
 10
114.981
 20
170.331
 30
0.0
 11
0.0620116
 21
170.721
 31
0.0
  0
LINE
  8
0
 62
     0
 10
0.0620116
 20
170.721
 30
0.0
 11
0
 21
188.771
 31
0.0
  0
LINE
  8
0
 62
     0
 10
0.071658
 20
151.121
 30
0.0
 11
114.981
 21
151.121
 31
0.0
  0
LINE
  8
0
 62
     0
 10
114.981
 20
151.121
 30
0.0
 11
114.981
 21
132.681
 31
0.0
  0
LINE
  8
0
 62
     0
 10
114.981
 20
132.681
 30
0.0
 11
0
 21
132.552
 31
0.0
  0
LINE
  8
0
 62
     0
 10
0
 20
132.552
 30
0.0
 11
0.071658
 21
151.121
 31
0.0
  0
ENDSEC
  0
EOF
