  0
SECTION
  2
HEADER
  9
$ACADVER
  1
AC1009
  9
$FILLMODE
 70
 0
  9
$SPLFRAME
 70
 1
  9
$EXTMIN
 10
0
 20
0
 30
0.0
  9
$EXTMAX
 10
1058.33
 20
1058.33
 30
0.0
  0
ENDSEC
  0
SECTION
  2
TABLES
  0
TABLE
  2
LAYER
 70
1
  0
LAYER
  2
0
 70
     0
 62
     7
  6
CONTINUOUS
  0
ENDTAB
  0
ENDSEC
  0
SECTION
  2
ENTITIES
  0
LINE
  8
0
 62
     0
 10
61.7361
 20
194.381
 30
0.0
 11
61.7361
 21
167.922
 31
0.0
  0
LINE
  8
0
 62
     0
 10
61.7361
 20
167.922
 30
0.0
 11
167.569
 21
167.922
 31
0.0
  0
LINE
  8
0
 62
     0
 10
167.569
 20
167.922
 30
0.0
 11
167.569
 21
62.0889
 31
0.0
  0
LINE
  8
0
 62
     0
 10
167.569
 20
62.0889
 30
0.0
 11
194.028
 21
62.0889
 31
0.0
  0
LINE
  8
0
 62
     0
 10
194.028
 20
62.0889
 30
0.0
 11
194.028
 21
44.45
 31
0.0
  0
LINE
  8
0
 62
     0
 10
194.028
 20
44.45
 30
0.0
 11
167.569
 21
44.45
 31
0.0
  0
LINE
  8
0
 62
     0
 10
167.569
 20
44.45
 30
0.0
 11
167.569
 21
17.9917
 31
0.0
  0
LINE
  8
0
 62
     0
 10
167.569
 20
17.9917
 30
0.0
 11
149.931
 21
17.9917
 31
0.0
  0
LINE
  8
0
 62
     0
 10
149.931
 20
17.9917
 30
0.0
 11
149.931
 21
44.45
 31
0.0
  0
LINE
  8
0
 62
     0
 10
149.931
 20
44.45
 30
0.0
 11
44.0972
 21
44.45
 31
0.0
  0
LINE
  8
0
 62
     0
 10
44.0972
 20
44.45
 30
0.0
 11
44.0972
 21
150.283
 31
0.0
  0
LINE
  8
0
 62
     0
 10
44.0972
 20
150.283
 30
0.0
 11
17.6389
 21
150.283
 31
0.0
  0
LINE
  8
0
 62
     0
 10
17.6389
 20
150.283
 30
0.0
 11
17.6389
 21
167.922
 31
0.0
  0
LINE
  8
0
 62
     0
 10
17.6389
 20
167.922
 30
0.0
 11
44.0972
 21
167.922
 31
0.0
  0
LINE
  8
0
 62
     0
 10
44.0972
 20
167.922
 30
0.0
 11
44.0972
 21
194.381
 31
0.0
  0
LINE
  8
0
 62
     0
 10
44.0972
 20
194.381
 30
0.0
 11
61.7361
 21
194.381
 31
0.0
  0
LINE
  8
0
 62
     0
 10
85.9896
 20
123.566
 30
0.0
 11
61.7361
 21
97.6492
 31
0.0
  0
LINE
  8
0
 62
     0
 10
61.7361
 20
97.6492
 30
0.0
 11
61.7361
 21
71.8358
 31
0.0
  0
LINE
  8
0
 62
     0
 10
61.7361
 20
71.8358
 30
0.0
 11
86.4044
 21
98.2045
 31
0.0
  0
LINE
  8
0
 62
     0
 10
86.4044
 20
98.2045
 30
0.0
 11
115.063
 21
69.547
 31
0.0
  0
LINE
  8
0
 62
     0
 10
115.063
 20
69.547
 30
0.0
 11
131.093
 21
85.5846
 31
0.0
  0
LINE
  8
0
 62
     0
 10
131.093
 20
85.5846
 30
0.0
 11
149.931
 21
66.7508
 31
0.0
  0
LINE
  8
0
 62
     0
 10
149.931
 20
66.7508
 30
0.0
 11
149.931
 21
91.6961
 31
0.0
  0
LINE
  8
0
 62
     0
 10
149.931
 20
91.6961
 30
0.0
 11
131.098
 21
110.527
 31
0.0
  0
LINE
  8
0
 62
     0
 10
131.098
 20
110.527
 30
0.0
 11
115.058
 21
94.4922
 31
0.0
  0
LINE
  8
0
 62
     0
 10
115.058
 20
94.4922
 30
0.0
 11
85.9896
 21
123.566
 31
0.0
  0
LINE
  8
0
 62
     0
 10
119.063
 20
145.874
 30
0.0
 11
118.395
 21
145.874
 31
0.0
  0
LINE
  8
0
 62
     0
 10
118.395
 20
145.874
 30
0.0
 11
116.396
 21
145.605
 31
0.0
  0
LINE
  8
0
 62
     0
 10
116.396
 20
145.605
 30
0.0
 11
113.913
 21
144.835
 31
0.0
  0
LINE
  8
0
 62
     0
 10
113.913
 20
144.835
 30
0.0
 11
111.665
 21
143.615
 31
0.0
  0
LINE
  8
0
 62
     0
 10
111.665
 20
143.615
 30
0.0
 11
109.707
 21
142
 31
0.0
  0
LINE
  8
0
 62
     0
 10
109.707
 20
142
 30
0.0
 11
108.092
 21
140.042
 31
0.0
  0
LINE
  8
0
 62
     0
 10
108.092
 20
140.042
 30
0.0
 11
106.872
 21
137.794
 31
0.0
  0
LINE
  8
0
 62
     0
 10
106.872
 20
137.794
 30
0.0
 11
106.102
 21
135.311
 31
0.0
  0
LINE
  8
0
 62
     0
 10
106.102
 20
135.311
 30
0.0
 11
105.833
 21
133.312
 31
0.0
  0
LINE
  8
0
 62
     0
 10
105.833
 20
133.312
 30
0.0
 11
105.833
 21
132.644
 31
0.0
  0
LINE
  8
0
 62
     0
 10
105.833
 20
132.644
 30
0.0
 11
105.833
 21
131.979
 31
0.0
  0
LINE
  8
0
 62
     0
 10
105.833
 20
131.979
 30
0.0
 11
106.102
 21
129.979
 31
0.0
  0
LINE
  8
0
 62
     0
 10
106.102
 20
129.979
 30
0.0
 11
106.872
 21
127.496
 31
0.0
  0
LINE
  8
0
 62
     0
 10
106.872
 20
127.496
 30
0.0
 11
108.092
 21
125.248
 31
0.0
  0
LINE
  8
0
 62
     0
 10
108.092
 20
125.248
 30
0.0
 11
109.707
 21
123.29
 31
0.0
  0
LINE
  8
0
 62
     0
 10
109.707
 20
123.29
 30
0.0
 11
111.665
 21
121.675
 31
0.0
  0
LINE
  8
0
 62
     0
 10
111.665
 20
121.675
 30
0.0
 11
113.913
 21
120.456
 31
0.0
  0
LINE
  8
0
 62
     0
 10
113.913
 20
120.456
 30
0.0
 11
116.396
 21
119.686
 31
0.0
  0
LINE
  8
0
 62
     0
 10
116.396
 20
119.686
 30
0.0
 11
118.395
 21
119.415
 31
0.0
  0
LINE
  8
0
 62
     0
 10
118.395
 20
119.415
 30
0.0
 11
119.063
 21
119.415
 31
0.0
  0
LINE
  8
0
 62
     0
 10
119.063
 20
119.415
 30
0.0
 11
119.728
 21
119.415
 31
0.0
  0
LINE
  8
0
 62
     0
 10
119.728
 20
119.415
 30
0.0
 11
121.728
 21
119.686
 31
0.0
  0
LINE
  8
0
 62
     0
 10
121.728
 20
119.686
 30
0.0
 11
124.211
 21
120.456
 31
0.0
  0
LINE
  8
0
 62
     0
 10
124.211
 20
120.456
 30
0.0
 11
126.458
 21
121.675
 31
0.0
  0
LINE
  8
0
 62
     0
 10
126.458
 20
121.675
 30
0.0
 11
128.417
 21
123.29
 31
0.0
  0
LINE
  8
0
 62
     0
 10
128.417
 20
123.29
 30
0.0
 11
130.032
 21
125.248
 31
0.0
  0
LINE
  8
0
 62
     0
 10
130.032
 20
125.248
 30
0.0
 11
131.251
 21
127.496
 31
0.0
  0
LINE
  8
0
 62
     0
 10
131.251
 20
127.496
 30
0.0
 11
132.021
 21
129.979
 31
0.0
  0
LINE
  8
0
 62
     0
 10
132.021
 20
129.979
 30
0.0
 11
132.292
 21
131.979
 31
0.0
  0
LINE
  8
0
 62
     0
 10
132.292
 20
131.979
 30
0.0
 11
132.292
 21
132.644
 31
0.0
  0
LINE
  8
0
 62
     0
 10
132.292
 20
132.644
 30
0.0
 11
132.292
 21
133.312
 31
0.0
  0
LINE
  8
0
 62
     0
 10
132.292
 20
133.312
 30
0.0
 11
132.021
 21
135.311
 31
0.0
  0
LINE
  8
0
 62
     0
 10
132.021
 20
135.311
 30
0.0
 11
131.251
 21
137.794
 31
0.0
  0
LINE
  8
0
 62
     0
 10
131.251
 20
137.794
 30
0.0
 11
130.032
 21
140.042
 31
0.0
  0
LINE
  8
0
 62
     0
 10
130.032
 20
140.042
 30
0.0
 11
128.417
 21
142
 31
0.0
  0
LINE
  8
0
 62
     0
 10
128.417
 20
142
 30
0.0
 11
126.458
 21
143.615
 31
0.0
  0
LINE
  8
0
 62
     0
 10
126.458
 20
143.615
 30
0.0
 11
124.211
 21
144.835
 31
0.0
  0
LINE
  8
0
 62
     0
 10
124.211
 20
144.835
 30
0.0
 11
121.728
 21
145.605
 31
0.0
  0
LINE
  8
0
 62
     0
 10
121.728
 20
145.605
 30
0.0
 11
119.728
 21
145.874
 31
0.0
  0
LINE
  8
0
 62
     0
 10
119.728
 20
145.874
 30
0.0
 11
119.063
 21
145.874
 31
0.0
  0
ENDSEC
  0
EOF
