  0
SECTION
  2
HEADER
  9
$ACADVER
  1
AC1009
  9
$FILLMODE
 70
 0
  9
$SPLFRAME
 70
 1
  9
$EXTMIN
 10
0
 20
0
 30
0.0
  9
$EXTMAX
 10
1058.33
 20
1058.33
 30
0.0
  0
ENDSEC
  0
SECTION
  2
TABLES
  0
TABLE
  2
LAYER
 70
1
  0
LAYER
  2
0
 70
     0
 62
     7
  6
CONTINUOUS
  0
ENDTAB
  0
ENDSEC
  0
SECTION
  2
ENTITIES
  0
LINE
  8
0
 62
     0
 10
96.8897
 20
111.478
 30
0.0
 11
163.917
 21
44.45
 31
0.0
  0
LINE
  8
0
 62
     0
 10
163.917
 20
44.45
 30
0.0
 11
136.577
 21
44.45
 31
0.0
  0
LINE
  8
0
 62
     0
 10
136.577
 20
44.45
 30
0.0
 11
136.577
 21
17.9917
 31
0.0
  0
LINE
  8
0
 62
     0
 10
136.577
 20
17.9917
 30
0.0
 11
57.2022
 21
17.9917
 31
0.0
  0
LINE
  8
0
 62
     0
 10
57.2022
 20
17.9917
 30
0.0
 11
57.2022
 21
44.45
 31
0.0
  0
LINE
  8
0
 62
     0
 10
57.2022
 20
44.45
 30
0.0
 11
29.8621
 21
44.45
 31
0.0
  0
LINE
  8
0
 62
     0
 10
29.8621
 20
44.45
 30
0.0
 11
96.8897
 21
111.478
 31
0.0
  0
LINE
  8
0
 62
     0
 10
96.8897
 20
132.644
 30
0.0
 11
96.3083
 21
132.636
 31
0.0
  0
LINE
  8
0
 62
     0
 10
96.3083
 20
132.636
 30
0.0
 11
93.5411
 21
131.933
 31
0.0
  0
LINE
  8
0
 62
     0
 10
93.5411
 20
131.933
 30
0.0
 11
91.1229
 21
130.415
 31
0.0
  0
LINE
  8
0
 62
     0
 10
91.1229
 20
130.415
 30
0.0
 11
90.7161
 21
129.999
 31
0.0
  0
LINE
  8
0
 62
     0
 10
90.7161
 20
129.999
 30
0.0
 11
2.52181
 21
41.8042
 31
0.0
  0
LINE
  8
0
 62
     0
 10
2.52181
 20
41.8042
 30
0.0
 11
2.07257
 21
41.348
 31
0.0
  0
LINE
  8
0
 62
     0
 10
2.07257
 20
41.348
 30
0.0
 11
0.999077
 21
39.7108
 31
0.0
  0
LINE
  8
0
 62
     0
 10
0.999077
 20
39.7108
 30
0.0
 11
0.162609
 21
37.3172
 31
0.0
  0
LINE
  8
0
 62
     0
 10
0.162609
 20
37.3172
 30
0.0
 11
0.039963
 21
34.7845
 31
0.0
  0
LINE
  8
0
 62
     0
 10
0.039963
 20
34.7845
 30
0.0
 11
0.420303
 21
32.8648
 31
0.0
  0
LINE
  8
0
 62
     0
 10
0.420303
 20
32.8648
 30
0.0
 11
0.664214
 21
32.2723
 31
0.0
  0
LINE
  8
0
 62
     0
 10
0.664214
 20
32.2723
 30
0.0
 11
0.906748
 21
31.6811
 31
0.0
  0
LINE
  8
0
 62
     0
 10
0.906748
 20
31.6811
 30
0.0
 11
1.98851
 21
30.0495
 31
0.0
  0
LINE
  8
0
 62
     0
 10
1.98851
 20
30.0495
 30
0.0
 11
3.85988
 21
28.3366
 31
0.0
  0
LINE
  8
0
 62
     0
 10
3.85988
 20
28.3366
 30
0.0
 11
6.14056
 21
27.2273
 31
0.0
  0
LINE
  8
0
 62
     0
 10
6.14056
 20
27.2273
 30
0.0
 11
8.05462
 21
26.8207
 31
0.0
  0
LINE
  8
0
 62
     0
 10
8.05462
 20
26.8207
 30
0.0
 11
8.69541
 21
26.8111
 31
0.0
  0
LINE
  8
0
 62
     0
 10
8.69541
 20
26.8111
 30
0.0
 11
39.5633
 21
26.8111
 31
0.0
  0
LINE
  8
0
 62
     0
 10
39.5633
 20
26.8111
 30
0.0
 11
39.5633
 21
9.17222
 31
0.0
  0
LINE
  8
0
 62
     0
 10
39.5633
 20
9.17222
 30
0.0
 11
39.5633
 21
8.7285
 31
0.0
  0
LINE
  8
0
 62
     0
 10
39.5633
 20
8.7285
 30
0.0
 11
39.7425
 21
7.39592
 31
0.0
  0
LINE
  8
0
 62
     0
 10
39.7425
 20
7.39592
 30
0.0
 11
40.2551
 21
5.73952
 31
0.0
  0
LINE
  8
0
 62
     0
 10
40.2551
 20
5.73952
 30
0.0
 11
41.0683
 21
4.24159
 31
0.0
  0
LINE
  8
0
 62
     0
 10
41.0683
 20
4.24159
 30
0.0
 11
42.146
 21
2.9366
 31
0.0
  0
LINE
  8
0
 62
     0
 10
42.146
 20
2.9366
 30
0.0
 11
43.4509
 21
1.85897
 31
0.0
  0
LINE
  8
0
 62
     0
 10
43.4509
 20
1.85897
 30
0.0
 11
44.9488
 21
1.04593
 31
0.0
  0
LINE
  8
0
 62
     0
 10
44.9488
 20
1.04593
 30
0.0
 11
46.6051
 21
0.533301
 31
0.0
  0
LINE
  8
0
 62
     0
 10
46.6051
 20
0.533301
 30
0.0
 11
47.9379
 21
0.352778
 31
0.0
  0
LINE
  8
0
 62
     0
 10
47.9379
 20
0.352778
 30
0.0
 11
48.3828
 21
0.352778
 31
0.0
  0
LINE
  8
0
 62
     0
 10
48.3828
 20
0.352778
 30
0.0
 11
145.397
 21
0.352778
 31
0.0
  0
LINE
  8
0
 62
     0
 10
145.397
 20
0.352778
 30
0.0
 11
145.84
 21
0.352778
 31
0.0
  0
LINE
  8
0
 62
     0
 10
145.84
 20
0.352778
 30
0.0
 11
147.173
 21
0.533301
 31
0.0
  0
LINE
  8
0
 62
     0
 10
147.173
 20
0.533301
 30
0.0
 11
148.83
 21
1.04593
 31
0.0
  0
LINE
  8
0
 62
     0
 10
148.83
 20
1.04593
 30
0.0
 11
150.327
 21
1.85897
 31
0.0
  0
LINE
  8
0
 62
     0
 10
150.327
 20
1.85897
 30
0.0
 11
151.632
 21
2.9366
 31
0.0
  0
LINE
  8
0
 62
     0
 10
151.632
 20
2.9366
 30
0.0
 11
152.71
 21
4.24159
 31
0.0
  0
LINE
  8
0
 62
     0
 10
152.71
 20
4.24159
 30
0.0
 11
153.523
 21
5.73952
 31
0.0
  0
LINE
  8
0
 62
     0
 10
153.523
 20
5.73952
 30
0.0
 11
154.036
 21
7.39592
 31
0.0
  0
LINE
  8
0
 62
     0
 10
154.036
 20
7.39592
 30
0.0
 11
154.216
 21
8.7285
 31
0.0
  0
LINE
  8
0
 62
     0
 10
154.216
 20
8.7285
 30
0.0
 11
154.216
 21
9.17222
 31
0.0
  0
LINE
  8
0
 62
     0
 10
154.216
 20
9.17222
 30
0.0
 11
154.216
 21
26.8111
 31
0.0
  0
LINE
  8
0
 62
     0
 10
154.216
 20
26.8111
 30
0.0
 11
185.084
 21
26.8111
 31
0.0
  0
LINE
  8
0
 62
     0
 10
185.084
 20
26.8111
 30
0.0
 11
185.724
 21
26.8207
 31
0.0
  0
LINE
  8
0
 62
     0
 10
185.724
 20
26.8207
 30
0.0
 11
187.638
 21
27.2273
 31
0.0
  0
LINE
  8
0
 62
     0
 10
187.638
 20
27.2273
 30
0.0
 11
189.919
 21
28.3366
 31
0.0
  0
LINE
  8
0
 62
     0
 10
189.919
 20
28.3366
 30
0.0
 11
191.79
 21
30.0495
 31
0.0
  0
LINE
  8
0
 62
     0
 10
191.79
 20
30.0495
 30
0.0
 11
192.872
 21
31.6811
 31
0.0
  0
LINE
  8
0
 62
     0
 10
192.872
 20
31.6811
 30
0.0
 11
193.115
 21
32.2723
 31
0.0
  0
LINE
  8
0
 62
     0
 10
193.115
 20
32.2723
 30
0.0
 11
193.358
 21
32.8648
 31
0.0
  0
LINE
  8
0
 62
     0
 10
193.358
 20
32.8648
 30
0.0
 11
193.738
 21
34.7845
 31
0.0
  0
LINE
  8
0
 62
     0
 10
193.738
 20
34.7845
 30
0.0
 11
193.617
 21
37.3172
 31
0.0
  0
LINE
  8
0
 62
     0
 10
193.617
 20
37.3172
 30
0.0
 11
192.779
 21
39.7108
 31
0.0
  0
LINE
  8
0
 62
     0
 10
192.779
 20
39.7108
 30
0.0
 11
191.706
 21
41.348
 31
0.0
  0
LINE
  8
0
 62
     0
 10
191.706
 20
41.348
 30
0.0
 11
191.258
 21
41.8042
 31
0.0
  0
LINE
  8
0
 62
     0
 10
191.258
 20
41.8042
 30
0.0
 11
103.063
 21
129.999
 31
0.0
  0
LINE
  8
0
 62
     0
 10
103.063
 20
129.999
 30
0.0
 11
102.656
 21
130.415
 31
0.0
  0
LINE
  8
0
 62
     0
 10
102.656
 20
130.415
 30
0.0
 11
100.237
 21
131.933
 31
0.0
  0
LINE
  8
0
 62
     0
 10
100.237
 20
131.933
 30
0.0
 11
97.4714
 21
132.636
 31
0.0
  0
LINE
  8
0
 62
     0
 10
97.4714
 20
132.636
 30
0.0
 11
96.8897
 21
132.644
 31
0.0
  0
ENDSEC
  0
EOF
