  0
SECTION
  2
HEADER
  9
$ACADVER
  1
AC1009
  9
$FILLMODE
 70
 0
  9
$SPLFRAME
 70
 1
  9
$EXTMIN
 10
0
 20
0
 30
0.0
  9
$EXTMAX
 10
1058.33
 20
1058.33
 30
0.0
  0
ENDSEC
  0
SECTION
  2
TABLES
  0
TABLE
  2
LAYER
 70
1
  0
LAYER
  2
0
 70
     0
 62
     7
  6
CONTINUOUS
  0
ENDTAB
  0
ENDSEC
  0
SECTION
  2
ENTITIES
  0
LINE
  8
0
 62
     0
 10
127.08
 20
135.819
 30
0.0
 11
135.467
 21
135.819
 31
0.0
  0
LINE
  8
0
 62
     0
 10
135.467
 20
135.819
 30
0.0
 11
135.467
 21
68.0861
 31
0.0
  0
LINE
  8
0
 62
     0
 10
135.467
 20
68.0861
 30
0.0
 11
127.08
 21
68.0861
 31
0.0
  0
LINE
  8
0
 62
     0
 10
127.08
 20
68.0861
 30
0.0
 11
127.08
 21
135.819
 31
0.0
  0
LINE
  8
0
 62
     0
 10
0
 20
68.0861
 30
0.0
 11
8.38673
 21
68.0861
 31
0.0
  0
LINE
  8
0
 62
     0
 10
8.38673
 20
68.0861
 30
0.0
 11
8.38673
 21
0.352778
 31
0.0
  0
LINE
  8
0
 62
     0
 10
8.38673
 20
0.352778
 30
0.0
 11
0
 21
0.352778
 31
0.0
  0
LINE
  8
0
 62
     0
 10
0
 20
0.352778
 30
0.0
 11
0
 21
68.0861
 31
0.0
  0
LINE
  8
0
 62
     0
 10
42.3594
 20
42.7122
 30
0.0
 11
135.467
 21
42.7122
 31
0.0
  0
LINE
  8
0
 62
     0
 10
135.467
 20
42.7122
 30
0.0
 11
135.467
 21
25.7266
 31
0.0
  0
LINE
  8
0
 62
     0
 10
135.467
 20
25.7266
 30
0.0
 11
42.3594
 21
25.7266
 31
0.0
  0
LINE
  8
0
 62
     0
 10
42.3594
 20
25.7266
 30
0.0
 11
42.3594
 21
4.53376
 31
0.0
  0
LINE
  8
0
 62
     0
 10
42.3594
 20
4.53376
 30
0.0
 11
12.8061
 21
34.0872
 31
0.0
  0
LINE
  8
0
 62
     0
 10
12.8061
 20
34.0872
 30
0.0
 11
42.3594
 21
63.905
 31
0.0
  0
LINE
  8
0
 62
     0
 10
42.3594
 20
63.905
 30
0.0
 11
42.3594
 21
42.7122
 31
0.0
  0
LINE
  8
0
 62
     0
 10
93.1072
 20
93.46
 30
0.0
 11
0
 21
93.46
 31
0.0
  0
LINE
  8
0
 62
     0
 10
0
 20
93.46
 30
0.0
 11
0
 21
110.446
 31
0.0
  0
LINE
  8
0
 62
     0
 10
0
 20
110.446
 30
0.0
 11
93.1072
 21
110.446
 31
0.0
  0
LINE
  8
0
 62
     0
 10
93.1072
 20
110.446
 30
0.0
 11
93.1072
 21
131.638
 31
0.0
  0
LINE
  8
0
 62
     0
 10
93.1072
 20
131.638
 30
0.0
 11
122.66
 21
101.82
 31
0.0
  0
LINE
  8
0
 62
     0
 10
122.66
 20
101.82
 30
0.0
 11
93.1072
 21
72.2672
 31
0.0
  0
LINE
  8
0
 62
     0
 10
93.1072
 20
72.2672
 30
0.0
 11
93.1072
 21
93.46
 31
0.0
  0
ENDSEC
  0
EOF
